<svg width="80" height="80" viewBox="0 0 80 80" fill="none" xmlns="http://www.w3.org/2000/svg">
<g id="Icon - success">
<circle id="Circle" cx="40" cy="40" r="40" fill="#34C759"/>
<path id="&#244;&#128;&#134;&#133;" d="M36.0782 58C34.905 58 33.9162 57.4895 33.1117 56.4686L22.8799 43.3093C22.5615 42.9113 22.3352 42.5306 22.2011 42.1673C22.067 41.7866 22 41.3973 22 40.9993C22 40.1168 22.2849 39.3901 22.8547 38.819C23.4246 38.2307 24.1536 37.9366 25.0419 37.9366C26.0307 37.9366 26.8603 38.3778 27.5307 39.2603L35.9777 50.473L52.3184 23.6352C52.7039 23.0469 53.0978 22.6316 53.5 22.3893C53.9022 22.1298 54.405 22 55.0084 22C55.8799 22 56.5922 22.2855 57.1453 22.8565C57.7151 23.4102 58 24.1283 58 25.0108C58 25.3569 57.9413 25.7116 57.824 26.075C57.7235 26.4384 57.5475 26.819 57.2961 27.217L39.0447 56.3908C38.3408 57.4636 37.352 58 36.0782 58Z" fill="white"/>
</g>
</svg>
