<svg width="664" height="350" viewBox="0 0 664 350" fill="none" xmlns="http://www.w3.org/2000/svg">
<g clip-path="url(#clip0_3197_3044)">
<g filter="url(#filter0_bd_3197_3044)">
<path d="M0 16C0 10.3995 0 7.59921 1.08993 5.46009C2.04867 3.57847 3.57847 2.04867 5.46009 1.08993C7.59921 0 10.3995 0 16 0H648C653.601 0 656.401 0 658.54 1.08993C660.422 2.04867 661.951 3.57847 662.91 5.46009C664 7.59921 664 10.3995 664 16V350H0V16Z" fill="#F2F2F7" shape-rendering="crispEdges"/>
</g>
<path opacity="0.3" d="M674.246 525.627L343.152 213.246L750.752 376.469C752.06 376.996 753.49 376.155 753.847 374.655L772.572 295.465C772.93 293.965 772.055 292.435 770.685 292.162L344.842 206.072L770.051 119.991C771.456 119.708 772.339 118.147 771.962 116.607L752.75 37.559C752.373 36.0188 750.911 35.1575 749.561 35.7047L343.105 198.907L674.057 -115.298L618.323 -177.353L338.391 193.659L482.924 -261.143C483.409 -262.653 482.624 -264.314 481.235 -264.73L410.476 -285.898C409.087 -286.313 407.676 -285.31 407.427 -283.729L331.983 191.743L253.364 -283.8C253.105 -285.34 251.733 -286.313 250.383 -285.908L179.628 -264.699C178.278 -264.294 177.522 -262.683 178.008 -261.203L325.57 193.679L44.8757 -175.113C43.9559 -176.319 42.3236 -176.39 41.3299 -175.275L-10.2983 -117.365C-11.2921 -116.25 -11.2226 -114.426 -10.1402 -113.403L320.89 198.918L-86.8553 35.6338C-88.0901 35.1372 -89.4386 35.9276 -89.7694 37.3462L-108.566 116.85C-108.897 118.269 -108.076 119.698 -106.787 119.961L319.2 206.082L-106.317 292.223C-107.549 292.476 -108.334 293.854 -108.003 295.212L-88.625 374.939C-88.2941 376.296 -86.995 377.056 -85.8178 376.58L320.937 213.256L-8.06187 525.607C-9.1104 526.6 -9.177 528.393 -8.1941 529.488L43.8902 587.479C44.8731 588.574 46.4777 588.493 47.3624 587.317L325.643 218.495L181.082 673.417C180.625 674.866 181.373 676.457 182.708 676.853L253.675 698.081C255.01 698.476 256.357 697.524 256.597 696.004L332.069 220.41L410.678 695.994C410.928 697.514 412.292 698.476 413.632 698.081L484.441 676.863C485.782 676.457 486.52 674.867 486.044 673.407L338.473 218.495L619.221 587.347C620.105 588.513 621.692 588.584 622.649 587.51L674.404 529.457C675.362 528.383 675.292 526.61 674.246 525.627Z" fill="url(#paint0_radial_3197_3044)"/>
<g opacity="0.3">
<path d="M56.2023 32.9185C68.5319 42.7415 88.0222 43.9307 99.7358 35.5865C111.458 27.2275 110.967 12.5042 98.6401 2.67629C86.3155 -7.14362 66.8233 -8.34083 55.1036 0.0132641C43.3869 8.36243 43.8757 23.0906 56.2023 32.9185Z" fill="#FFC727"/>
<path d="M47.9077 6.11982L46.8559 12.5083C47.6298 7.80282 50.3682 3.38668 55.1033 0.0129051C66.823 -8.34119 86.3152 -7.14398 98.6398 2.67593C105.989 8.53196 109.132 16.1303 107.986 23.0858L109.038 16.6973C110.183 9.74178 107.041 2.14344 99.6916 -3.71259C87.367 -13.5325 67.8797 -14.7267 56.155 -6.37561C51.423 -3.00677 48.6846 1.40938 47.9077 6.11982Z" fill="#FFC727"/>
<g opacity="0.1">
<path d="M86.1148 1.47301C71.7828 -4.24922 55.2417 1.19942 52.5732 12.5704C51.0388 18.6491 54.0493 25.2092 59.8992 29.8731C62.3255 31.8039 65.2317 33.4114 68.5117 34.5218C83.907 39.8987 100.183 32.7798 101.137 20.9132C100.566 27.3119 94.8854 32.8753 86.884 34.6242C78.0066 36.6705 68.507 34.0708 62.2366 29.0741C58.0288 25.7171 55.2674 21.2788 55.1385 16.4333C54.6609 4.36 70.6688 -3.19495 85.8016 2.06155C88.8529 3.08595 91.6065 4.60655 93.9222 6.44904C98.0074 9.70375 100.695 13.9607 101.115 18.2651C100.678 13.6857 97.8363 9.14375 93.481 5.66898C91.3546 3.97666 88.8668 2.5377 86.1228 1.47114L86.1148 1.47301Z" fill="black"/>
</g>
<g opacity="0.1">
<path d="M47.9077 6.11982L46.8559 12.5083C47.6298 7.80282 50.3682 3.38668 55.1033 0.0129051C66.823 -8.34119 86.3152 -7.14398 98.6398 2.67593C105.989 8.53196 109.132 16.1303 107.986 23.0858L109.038 16.6973C110.183 9.74178 107.041 2.14344 99.6916 -3.71259C87.367 -13.5325 67.8797 -14.7267 56.155 -6.37561C51.423 -3.00677 48.6846 1.40938 47.9077 6.11982Z" fill="black"/>
</g>
</g>
<g opacity="0.3">
<path d="M678.028 182.186C678.798 166.441 668.378 149.927 654.763 145.295C641.13 140.664 629.467 149.664 628.692 165.409C627.921 181.149 638.337 197.669 651.963 202.301C665.584 206.933 677.253 197.932 678.028 182.186Z" fill="#FFC727"/>
<path d="M661.123 204.572L666.922 201.694C662.651 203.814 657.467 204.172 651.963 202.299C638.336 197.668 627.921 181.148 628.691 165.408C629.151 156.022 633.482 149.033 639.797 145.9L633.997 148.778C627.683 151.912 623.351 158.901 622.892 168.287C622.121 184.026 632.536 200.54 646.163 205.178C651.662 207.051 656.846 206.693 661.123 204.572Z" fill="#FFC727"/>
<g opacity="0.1">
<path d="M635.031 176.28C638.759 191.255 652.844 201.497 663.632 197.02C669.462 194.715 673.028 188.439 673.396 180.966C673.545 177.869 673.152 174.571 672.138 171.261C667.508 155.624 652.222 146.573 642.034 152.731C647.56 149.456 655.394 150.817 661.488 156.289C668.335 162.299 671.774 171.528 671.382 179.536C671.115 184.912 669.126 189.746 665.269 192.682C655.749 200.122 640.266 191.543 635.692 176.19C634.741 173.115 634.366 169.992 634.509 167.036C634.764 161.819 636.649 157.151 639.897 154.296C636.436 157.325 634.409 162.285 634.133 167.85C634.002 170.564 634.287 173.424 635.025 176.274L635.031 176.28Z" fill="black"/>
</g>
<g opacity="0.1">
<path d="M661.124 204.572L666.923 201.694C662.652 203.814 657.468 204.172 651.964 202.299C638.337 197.668 627.922 181.148 628.692 165.408C629.152 156.022 633.483 149.033 639.798 145.9L633.998 148.778C627.684 151.912 623.352 158.901 622.893 168.287C622.122 184.026 632.537 200.54 646.164 205.178C651.663 207.051 656.847 206.693 661.124 204.572Z" fill="black"/>
</g>
</g>
<g opacity="0.3">
<path d="M152.806 173.789C148.247 167.037 138.821 163.433 131.753 165.733C124.679 168.04 122.642 175.376 127.198 182.13C131.754 188.881 141.18 192.489 148.253 190.184C155.322 187.881 157.362 180.544 152.806 173.789Z" fill="#FFC727"/>
<path d="M152.745 188.288L154.253 185.301C153.143 187.502 151.109 189.255 148.252 190.186C141.179 192.49 131.754 188.882 127.197 182.132C124.48 178.106 124.107 173.873 125.749 170.621L124.241 173.608C122.599 176.86 122.972 181.093 125.689 185.119C130.246 191.869 139.67 195.475 146.744 193.173C149.599 192.244 151.633 190.491 152.745 188.288Z" fill="#FFC727"/>
<g opacity="0.1">
<path d="M133.189 184.664C139.369 189.705 148.369 189.579 151.446 184.385C153.143 181.626 152.675 177.925 150.512 174.719C149.615 173.392 148.431 172.149 146.985 171.094C140.227 166.059 131.099 167.049 128.791 172.753C130.063 169.686 133.726 167.822 137.942 168.199C142.636 168.564 146.918 171.317 149.236 174.752C150.791 177.058 151.465 179.674 150.779 182.083C149.145 188.11 140.082 189.357 133.434 184.422C132.088 183.445 130.966 182.269 130.109 181.002C128.599 178.764 127.933 176.249 128.392 174.062C127.899 176.387 128.597 179.067 130.206 181.455C130.993 182.618 131.997 183.713 133.184 184.664L133.189 184.664Z" fill="black"/>
</g>
<g opacity="0.1">
<path d="M152.746 188.288L154.254 185.301C153.144 187.502 151.11 189.255 148.253 190.186C141.18 192.49 131.755 188.882 127.198 182.132C124.481 178.106 124.108 173.873 125.75 170.621L124.242 173.608C122.6 176.86 122.973 181.093 125.69 185.119C130.247 191.869 139.671 195.475 146.745 193.173C149.6 192.244 151.634 190.491 152.746 188.288Z" fill="black"/>
</g>
<path d="M511.803 78.6775C516.208 71.8243 515.8 61.7409 510.897 56.1546C505.986 50.5645 498.442 51.5874 494.033 58.4394C489.629 65.2899 490.033 75.3747 494.941 80.9636C499.847 86.5511 507.394 85.5294 511.803 78.6775Z" fill="#FFC727"/>
<path d="M498.457 84.3433L501.796 84.5499C499.336 84.3982 496.923 83.2212 494.94 80.9631C490.032 75.3742 489.628 65.2894 494.032 58.4389C496.659 54.3537 500.401 52.3406 504.037 52.5659L500.698 52.3593C497.061 52.134 493.319 54.1471 490.692 58.2323C486.288 65.0828 486.693 75.1649 491.6 80.7565C493.58 83.0133 495.994 84.1903 498.457 84.3433Z" fill="#FFC727"/>
<g opacity="0.1">
<path d="M494.07 64.9426C491.877 72.6109 495.544 80.8308 501.53 81.608C504.736 82.079 507.951 80.188 510.043 76.9362C510.909 75.5877 511.584 74.0094 511.983 72.2648C513.942 64.0679 509.431 56.0719 503.279 56.202C506.599 56.1606 509.757 58.7906 511.075 62.8131C512.591 67.2705 511.751 72.2908 509.51 75.7762C508.004 78.1153 505.867 79.7673 503.382 80.087C497.199 80.964 492.477 73.1286 494.389 65.0729C494.756 63.4504 495.394 61.9551 496.22 60.6681C497.68 58.3973 499.728 56.7929 501.919 56.3519C499.587 56.8159 497.401 58.5146 495.842 60.9357C495.083 62.1175 494.473 63.472 494.068 64.9386L494.07 64.9426Z" fill="black"/>
</g>
<g opacity="0.1">
<path d="M498.457 84.3433L501.797 84.5499C499.337 84.3982 496.924 83.2212 494.941 80.9631C490.033 75.3742 489.629 65.2894 494.033 58.4389C496.66 54.3537 500.402 52.3406 504.038 52.5659L500.699 52.3593C497.062 52.134 493.32 54.1471 490.693 58.2323C486.289 65.0828 486.694 75.1649 491.601 80.7565C493.581 83.0133 495.995 84.1903 498.457 84.3433Z" fill="black"/>
</g>
</g>
</g>
<defs>
<filter id="filter0_bd_3197_3044" x="-100" y="-100" width="864" height="550" filterUnits="userSpaceOnUse" color-interpolation-filters="sRGB">
<feFlood flood-opacity="0" result="BackgroundImageFix"/>
<feGaussianBlur in="BackgroundImageFix" stdDeviation="25"/>
<feComposite in2="SourceAlpha" operator="in" result="effect1_backgroundBlur_3197_3044"/>
<feColorMatrix in="SourceAlpha" type="matrix" values="0 0 0 0 0 0 0 0 0 0 0 0 0 0 0 0 0 0 127 0" result="hardAlpha"/>
<feOffset/>
<feGaussianBlur stdDeviation="50"/>
<feComposite in2="hardAlpha" operator="out"/>
<feColorMatrix type="matrix" values="0 0 0 0 0 0 0 0 0 0 0 0 0 0 0 0 0 0 0.05 0"/>
<feBlend mode="normal" in2="effect1_backgroundBlur_3197_3044" result="effect2_dropShadow_3197_3044"/>
<feBlend mode="normal" in="SourceGraphic" in2="effect2_dropShadow_3197_3044" result="shape"/>
</filter>
<radialGradient id="paint0_radial_3197_3044" cx="0" cy="0" r="1" gradientUnits="userSpaceOnUse" gradientTransform="translate(331.994 206.085) rotate(90) scale(457.415 409.334)">
<stop stop-color="#AEAEB2"/>
<stop offset="0.76" stop-color="#EBEBF5" stop-opacity="0.16"/>
</radialGradient>
<clipPath id="clip0_3197_3044">
<rect width="664" height="350" fill="white"/>
</clipPath>
</defs>
</svg>
