<svg width="664" height="350" viewBox="0 0 664 350" fill="none" xmlns="http://www.w3.org/2000/svg">
<g opacity="0.3">
<path d="M678.028 182.186C678.798 166.441 668.378 149.927 654.763 145.295C641.13 140.664 629.467 149.664 628.692 165.409C627.921 181.149 638.337 197.669 651.963 202.301C665.584 206.933 677.253 197.932 678.028 182.186Z" fill="#FFC727"/>
<path d="M661.123 204.572L666.922 201.694C662.651 203.814 657.467 204.172 651.963 202.299C638.336 197.668 627.921 181.148 628.691 165.408C629.151 156.022 633.482 149.033 639.797 145.9L633.997 148.778C627.683 151.912 623.351 158.901 622.892 168.287C622.121 184.026 632.536 200.54 646.163 205.178C651.662 207.051 656.846 206.693 661.123 204.572Z" fill="#FFC727"/>
<g opacity="0.1">
<path d="M635.031 176.28C638.759 191.255 652.844 201.497 663.632 197.02C669.462 194.715 673.028 188.439 673.396 180.966C673.545 177.869 673.152 174.571 672.138 171.261C667.508 155.624 652.222 146.573 642.034 152.731C647.56 149.456 655.394 150.817 661.488 156.289C668.335 162.299 671.774 171.528 671.382 179.536C671.115 184.912 669.126 189.746 665.269 192.682C655.749 200.122 640.266 191.543 635.692 176.19C634.741 173.115 634.366 169.992 634.509 167.036C634.764 161.819 636.649 157.151 639.897 154.296C636.436 157.325 634.409 162.285 634.133 167.85C634.002 170.564 634.287 173.424 635.025 176.274L635.031 176.28Z" fill="black"/>
</g>
<g opacity="0.1">
<path d="M661.124 204.572L666.923 201.694C662.652 203.814 657.468 204.172 651.964 202.299C638.337 197.668 627.922 181.148 628.692 165.408C629.152 156.022 633.483 149.033 639.798 145.9L633.998 148.778C627.684 151.912 623.352 158.901 622.893 168.287C622.122 184.026 632.537 200.54 646.164 205.178C651.663 207.051 656.847 206.693 661.124 204.572Z" fill="black"/>
</g>
</g>
<path opacity="0.3" d="M674.246 525.627L343.152 213.246L750.752 376.469C752.06 376.996 753.49 376.155 753.847 374.655L772.572 295.465C772.93 293.965 772.055 292.435 770.685 292.162L344.842 206.072L770.051 119.991C771.456 119.708 772.339 118.147 771.962 116.607L752.75 37.559C752.373 36.0188 750.911 35.1575 749.561 35.7047L343.105 198.907L674.057 -115.298L618.323 -177.353L338.391 193.659L482.924 -261.143C483.409 -262.653 482.624 -264.314 481.235 -264.73L410.476 -285.898C409.087 -286.313 407.676 -285.31 407.427 -283.729L331.983 191.743L253.364 -283.8C253.105 -285.34 251.733 -286.313 250.383 -285.908L179.628 -264.699C178.278 -264.294 177.522 -262.683 178.008 -261.203L325.57 193.679L44.8757 -175.113C43.9559 -176.319 42.3236 -176.39 41.3299 -175.275L-10.2983 -117.365C-11.2921 -116.25 -11.2226 -114.426 -10.1402 -113.403L320.89 198.918L-86.8553 35.6338C-88.0901 35.1372 -89.4386 35.9276 -89.7694 37.3462L-108.566 116.85C-108.897 118.269 -108.076 119.698 -106.787 119.961L319.2 206.082L-106.317 292.223C-107.549 292.476 -108.334 293.854 -108.003 295.212L-88.625 374.939C-88.2941 376.296 -86.995 377.056 -85.8178 376.58L320.937 213.256L-8.06187 525.607C-9.1104 526.6 -9.177 528.393 -8.1941 529.488L43.8902 587.479C44.8731 588.574 46.4777 588.493 47.3624 587.317L325.643 218.495L181.082 673.417C180.625 674.866 181.373 676.457 182.708 676.853L253.675 698.081C255.01 698.476 256.357 697.524 256.597 696.004L332.069 220.41L410.678 695.994C410.928 697.514 412.292 698.476 413.632 698.081L484.441 676.863C485.782 676.457 486.52 674.867 486.044 673.407L338.473 218.495L619.221 587.347C620.105 588.513 621.692 588.584 622.649 587.51L674.404 529.457C675.362 528.383 675.292 526.61 674.246 525.627Z" fill="url(#paint0_radial_3344_2940)"/>
<g opacity="0.3">
<path d="M56.2023 32.9185C68.5319 42.7415 88.0222 43.9307 99.7358 35.5865C111.458 27.2275 110.967 12.5042 98.6401 2.67629C86.3155 -7.14362 66.8233 -8.34083 55.1036 0.0132641C43.3869 8.36243 43.8757 23.0906 56.2023 32.9185Z" fill="#FFC727"/>
<path d="M47.9077 6.11982L46.8559 12.5083C47.6298 7.80282 50.3682 3.38668 55.1033 0.0129051C66.823 -8.34119 86.3152 -7.14398 98.6398 2.67593C105.989 8.53196 109.132 16.1303 107.986 23.0858L109.038 16.6973C110.183 9.74178 107.041 2.14344 99.6916 -3.71259C87.367 -13.5325 67.8797 -14.7267 56.155 -6.37561C51.423 -3.00677 48.6846 1.40938 47.9077 6.11982Z" fill="#FFC727"/>
<g opacity="0.1">
<path d="M86.1148 1.47301C71.7828 -4.24922 55.2417 1.19942 52.5732 12.5704C51.0388 18.6491 54.0493 25.2092 59.8992 29.8731C62.3255 31.8039 65.2317 33.4114 68.5117 34.5218C83.907 39.8987 100.183 32.7798 101.137 20.9132C100.566 27.3119 94.8854 32.8753 86.884 34.6242C78.0066 36.6705 68.507 34.0708 62.2366 29.0741C58.0288 25.7171 55.2674 21.2788 55.1385 16.4333C54.6609 4.36 70.6688 -3.19495 85.8016 2.06155C88.8529 3.08595 91.6065 4.60655 93.9222 6.44904C98.0074 9.70375 100.695 13.9607 101.115 18.2651C100.678 13.6857 97.8363 9.14375 93.481 5.66898C91.3546 3.97666 88.8668 2.5377 86.1228 1.47114L86.1148 1.47301Z" fill="black"/>
</g>
<g opacity="0.1">
<path d="M47.9077 6.11982L46.8559 12.5083C47.6298 7.80282 50.3682 3.38668 55.1033 0.0129051C66.823 -8.34119 86.3152 -7.14398 98.6398 2.67593C105.989 8.53196 109.132 16.1303 107.986 23.0858L109.038 16.6973C110.183 9.74178 107.041 2.14344 99.6916 -3.71259C87.367 -13.5325 67.8797 -14.7267 56.155 -6.37561C51.423 -3.00677 48.6846 1.40938 47.9077 6.11982Z" fill="black"/>
</g>
</g>
<g opacity="0.3">
<path d="M152.806 173.789C148.247 167.037 138.821 163.433 131.753 165.733C124.679 168.04 122.642 175.376 127.198 182.13C131.754 188.881 141.18 192.489 148.253 190.184C155.322 187.881 157.362 180.544 152.806 173.789Z" fill="#FFC727"/>
<path d="M152.745 188.288L154.253 185.301C153.143 187.502 151.109 189.255 148.252 190.186C141.179 192.49 131.754 188.882 127.197 182.132C124.48 178.106 124.107 173.873 125.749 170.621L124.241 173.608C122.599 176.86 122.972 181.093 125.689 185.119C130.246 191.869 139.67 195.475 146.744 193.173C149.599 192.244 151.633 190.491 152.745 188.288Z" fill="#FFC727"/>
<g opacity="0.1">
<path d="M133.189 184.664C139.369 189.705 148.369 189.579 151.446 184.385C153.143 181.626 152.675 177.925 150.512 174.719C149.615 173.392 148.431 172.149 146.985 171.094C140.227 166.059 131.099 167.049 128.791 172.753C130.063 169.686 133.726 167.822 137.942 168.199C142.636 168.564 146.918 171.317 149.236 174.752C150.791 177.058 151.465 179.674 150.779 182.083C149.145 188.11 140.082 189.357 133.434 184.422C132.088 183.445 130.966 182.269 130.109 181.002C128.599 178.764 127.933 176.249 128.392 174.062C127.899 176.387 128.597 179.067 130.206 181.455C130.993 182.618 131.997 183.713 133.184 184.664L133.189 184.664Z" fill="black"/>
</g>
<g opacity="0.1">
<path d="M152.746 188.288L154.254 185.301C153.144 187.502 151.11 189.255 148.253 190.186C141.18 192.49 131.755 188.882 127.198 182.132C124.481 178.106 124.108 173.873 125.75 170.621L124.242 173.608C122.6 176.86 122.973 181.093 125.69 185.119C130.247 191.869 139.671 195.475 146.745 193.173C149.6 192.244 151.634 190.491 152.746 188.288Z" fill="black"/>
</g>
<path d="M511.803 78.6775C516.208 71.8243 515.8 61.7409 510.897 56.1546C505.986 50.5645 498.442 51.5874 494.033 58.4394C489.629 65.2899 490.033 75.3747 494.941 80.9636C499.847 86.5511 507.394 85.5294 511.803 78.6775Z" fill="#FFC727"/>
<path d="M498.457 84.3433L501.796 84.5499C499.336 84.3982 496.923 83.2212 494.94 80.9631C490.032 75.3742 489.628 65.2894 494.032 58.4389C496.659 54.3537 500.401 52.3406 504.037 52.5659L500.698 52.3593C497.061 52.134 493.319 54.1471 490.692 58.2323C486.288 65.0828 486.693 75.1649 491.6 80.7565C493.58 83.0133 495.994 84.1903 498.457 84.3433Z" fill="#FFC727"/>
<g opacity="0.1">
<path d="M494.07 64.9426C491.877 72.6109 495.544 80.8308 501.53 81.608C504.736 82.079 507.951 80.188 510.043 76.9362C510.909 75.5877 511.584 74.0094 511.983 72.2648C513.942 64.0679 509.431 56.0719 503.279 56.202C506.599 56.1606 509.757 58.7906 511.075 62.8131C512.591 67.2705 511.751 72.2908 509.51 75.7762C508.004 78.1153 505.867 79.7673 503.382 80.087C497.199 80.964 492.477 73.1286 494.389 65.0729C494.756 63.4504 495.394 61.9551 496.22 60.6681C497.68 58.3973 499.728 56.7929 501.919 56.3519C499.587 56.8159 497.401 58.5146 495.842 60.9357C495.083 62.1175 494.473 63.472 494.068 64.9386L494.07 64.9426Z" fill="black"/>
</g>
<g opacity="0.1">
<path d="M498.457 84.3433L501.797 84.5499C499.337 84.3982 496.924 83.2212 494.941 80.9631C490.033 75.3742 489.629 65.2894 494.033 58.4389C496.66 54.3537 500.402 52.3406 504.038 52.5659L500.699 52.3593C497.062 52.134 493.32 54.1471 490.693 58.2323C486.289 65.0828 486.694 75.1649 491.601 80.7565C493.581 83.0133 495.995 84.1903 498.457 84.3433Z" fill="black"/>
</g>
</g>
<g clip-path="url(#clip0_3344_2940)">
<path d="M363.389 154.274C360.677 157.252 356.62 158.516 354.325 157.097C352.032 155.678 352.371 152.114 355.084 149.134C357.796 146.156 361.853 144.891 364.147 146.311C366.44 147.73 366.102 151.296 363.389 154.274Z" fill="#FFCC00"/>
<path d="M364.753 146.793L366.001 148.071C367.6 149.709 367.082 152.868 364.639 155.552C361.927 158.531 357.869 159.795 355.575 158.376C355.348 158.235 355.146 158.074 354.971 157.894L353.724 156.615C353.899 156.795 354.101 156.956 354.328 157.097C356.621 158.517 360.678 157.252 363.391 154.274C365.835 151.59 366.352 148.43 364.753 146.793Z" fill="#FFCC00"/>
<g opacity="0.1">
<path d="M364.051 148.56C365.142 150.734 363.066 154.355 359.829 155.905C358.094 156.755 356.383 156.792 355.295 156.118C354.844 155.839 354.5 155.439 354.305 154.924C353.347 152.515 355.874 148.791 359.19 147.518C357.4 148.215 355.667 149.798 354.909 151.467C354.038 153.329 354.43 154.882 355.596 155.603C356.379 156.088 357.513 156.2 358.849 155.778C362.171 154.756 364.813 151.042 363.877 148.673C363.698 148.192 363.372 147.812 362.942 147.547C362.177 147.072 361.079 146.961 359.891 147.287C361.153 146.938 362.325 147.053 363.143 147.558C363.538 147.803 363.852 148.139 364.051 148.559V148.56Z" fill="black"/>
</g>
<g opacity="0.1">
<path d="M364.752 146.793L366 148.071C367.599 149.709 367.081 152.868 364.638 155.552C361.926 158.531 357.868 159.795 355.574 158.376C355.347 158.235 355.145 158.074 354.97 157.894L353.723 156.615C353.898 156.795 354.1 156.956 354.327 157.097C356.62 158.517 360.677 157.252 363.39 154.274C365.834 151.59 366.351 148.43 364.752 146.793Z" fill="black"/>
</g>
</g>
<path opacity="0.5" d="M303.6 186.299L291.691 168.997L362.391 146.977L361.213 174.908L303.6 186.299Z" fill="url(#paint1_linear_3344_2940)"/>
<g clip-path="url(#clip1_3344_2940)">
<path d="M352.964 177.965C353.431 174.22 351.201 170.096 347.986 168.752C344.767 167.408 341.783 169.351 341.315 173.096C340.848 176.839 343.077 180.964 346.294 182.308C349.511 183.653 352.497 181.709 352.964 177.965Z" fill="#FFCC00"/>
<path d="M348.473 183.012L349.929 182.426C348.857 182.858 347.595 182.852 346.295 182.309C343.077 180.964 340.849 176.839 341.315 173.096C341.593 170.864 342.767 169.272 344.352 168.635L342.896 169.22C341.311 169.857 340.138 171.449 339.86 173.681C339.393 177.424 341.622 181.548 344.839 182.894C346.138 183.437 347.399 183.443 348.473 183.012Z" fill="#FFCC00"/>
<g opacity="0.1">
<path d="M342.658 175.8C343.294 179.44 346.523 182.131 349.215 181.252C350.668 180.803 351.643 179.368 351.865 177.591C351.957 176.855 351.92 176.061 351.733 175.253C350.89 171.44 347.349 169.012 344.772 170.303C346.169 169.618 348.042 170.08 349.42 171.493C350.972 173.047 351.641 175.31 351.403 177.214C351.243 178.493 350.675 179.612 349.689 180.245C347.251 181.854 343.654 179.535 342.819 175.79C342.644 175.04 342.608 174.288 342.696 173.585C342.85 172.344 343.39 171.263 344.227 170.639C343.335 171.301 342.756 172.449 342.59 173.773C342.51 174.418 342.528 175.106 342.656 175.799L342.658 175.8Z" fill="black"/>
</g>
<g opacity="0.1">
<path d="M348.473 183.012L349.929 182.426C348.857 182.858 347.595 182.852 346.295 182.309C343.077 180.964 340.849 176.839 341.315 173.096C341.593 170.864 342.767 169.272 344.352 168.635L342.896 169.22C341.311 169.857 340.138 171.449 339.86 173.681C339.393 177.424 341.622 181.548 344.839 182.894C346.138 183.437 347.399 183.443 348.473 183.012Z" fill="black"/>
</g>
</g>
<path d="M339.688 176.991L301.455 184.55C300.749 184.69 300.29 185.375 300.429 186.081L306.523 216.898C307.579 222.243 312.892 225.738 318.328 224.663L362.192 215.99C367.627 214.916 371.211 209.662 370.154 204.317L364.061 173.499C363.921 172.794 363.236 172.335 362.53 172.474L339.688 176.991Z" fill="#FF6381"/>
<path d="M337.445 177.433L326.537 179.59L334.805 221.405L345.713 219.248L337.445 177.433Z" fill="#111B39"/>
<path d="M369.019 198.582L366.862 187.674L303.231 200.255L305.388 211.163L369.019 198.582Z" fill="#111B39"/>
<ellipse cx="344.405" cy="153.799" rx="2.08208" ry="2.08208" transform="rotate(-11.1843 344.405 153.799)" fill="#FF6381"/>
<ellipse cx="335.293" cy="161.164" rx="1.23525" ry="1.23525" transform="rotate(-11.1843 335.293 161.164)" fill="#111B39"/>
<ellipse cx="331.763" cy="171.222" rx="1.18976" ry="1.18976" transform="rotate(-11.1843 331.763 171.222)" fill="#FF6381"/>
<ellipse cx="319.583" cy="168.069" rx="1.18976" ry="1.18976" transform="rotate(-11.1843 319.583 168.069)" fill="#FF6381"/>
<path d="M310.864 173.648C310.917 173.445 311.2 173.428 311.276 173.625L312.076 175.672C312.11 175.76 312.197 175.816 312.291 175.81L314.485 175.683C314.696 175.671 314.799 175.935 314.636 176.068L312.935 177.461C312.862 177.521 312.836 177.621 312.87 177.709L313.669 179.756C313.746 179.953 313.527 180.132 313.35 180.019L311.499 178.832C311.42 178.781 311.317 178.787 311.244 178.846L309.543 180.239C309.38 180.373 309.142 180.22 309.195 180.016L309.752 177.889C309.776 177.798 309.739 177.702 309.66 177.651L307.809 176.464C307.632 176.351 307.704 176.076 307.914 176.064L310.109 175.937C310.203 175.931 310.283 175.866 310.306 175.775L310.864 173.648Z" fill="#111B39"/>
<path fill-rule="evenodd" clip-rule="evenodd" d="M310.93 150.984L298.269 159.305C293.436 162.482 291.968 168.866 295.007 173.49L296.667 176.015C297.062 176.616 297.869 176.783 298.471 176.388L317.64 163.788L317.64 163.788L330.136 155.576L330.136 155.576L350.496 142.193C351.098 141.798 351.265 140.99 350.869 140.389L349.209 137.864C346.17 133.24 339.728 132.056 334.895 135.233L334.893 135.234L323.426 142.771L323.426 142.77L310.93 150.984L310.93 150.984Z" fill="#FF6381"/>
<path d="M321.228 144.215L311.937 150.322L319.844 162.353L329.136 156.246L321.228 144.215Z" fill="#111B39"/>
<path d="M310.366 141.52L295.996 142.361C293.548 142.504 292.171 145.241 293.517 147.288L297.502 153.351C298.49 154.855 300.512 155.271 302.018 154.281L312.343 147.495C315.132 145.662 313.697 141.324 310.367 141.519L310.366 141.52Z" fill="#111B39"/>
<path d="M314.133 139.044L320.606 126.186C321.709 123.996 324.767 123.817 326.112 125.864L330.097 131.927C331.086 133.431 330.666 135.451 329.16 136.441L318.835 143.228C316.046 145.061 312.634 142.024 314.133 139.044Z" fill="#111B39"/>
<path d="M353.179 128.287C352.835 127.995 352.663 127.652 352.666 127.256C352.669 126.861 352.867 126.483 353.268 126.122L357.772 122.132C358.251 121.714 358.823 121.494 359.489 121.468C360.155 121.443 360.728 121.634 361.207 122.041L367.076 127.024C367.555 127.431 367.836 127.965 367.919 128.626C368.002 129.287 367.878 129.888 367.542 130.428L364.324 135.509C364.034 135.961 363.692 136.22 363.302 136.287C362.912 136.354 362.546 136.24 362.202 135.949C361.995 135.772 361.847 135.589 361.76 135.397C361.673 135.204 361.62 135.02 361.608 134.836L361.395 132.23L356.979 128.48L354.373 128.693C354.187 128.708 353.995 128.688 353.795 128.634C353.593 128.577 353.386 128.463 353.179 128.287ZM363.436 131.398C363.581 131.521 363.754 131.574 363.952 131.558C364.151 131.542 364.315 131.459 364.437 131.316C364.558 131.173 364.613 130.998 364.596 130.799C364.58 130.601 364.498 130.437 364.355 130.315C364.212 130.194 364.036 130.139 363.838 130.155C363.64 130.172 363.475 130.254 363.354 130.397C363.232 130.54 363.178 130.715 363.194 130.914C363.21 131.112 363.293 131.276 363.436 131.398ZM363.78 128.658C363.926 128.781 364.099 128.834 364.297 128.817C364.495 128.801 364.66 128.719 364.781 128.576C364.903 128.433 364.957 128.258 364.941 128.059C364.925 127.861 364.842 127.696 364.699 127.575C364.556 127.453 364.381 127.399 364.183 127.415C363.984 127.431 363.82 127.514 363.698 127.657C363.577 127.8 363.522 127.975 363.539 128.174C363.555 128.372 363.637 128.536 363.78 128.658ZM358.074 126.726L358.751 127.301L359.614 126.286L360.63 127.148L361.205 126.471L360.189 125.608L361.051 124.592L360.374 124.017L359.512 125.033L358.496 124.171L357.921 124.848L358.936 125.71L358.074 126.726Z" fill="#111B39"/>
<path d="M301.61 123.336C301.781 123.213 302.01 123.38 301.944 123.58L300.957 126.593C300.928 126.682 300.959 126.78 301.035 126.836L303.596 128.706C303.766 128.83 303.677 129.099 303.467 129.099L300.297 129.091C300.202 129.091 300.119 129.151 300.089 129.241L299.102 132.253C299.037 132.453 298.753 132.453 298.689 132.252L297.717 129.235C297.688 129.145 297.604 129.084 297.51 129.084L294.34 129.076C294.129 129.076 294.042 128.806 294.213 128.683L296.782 126.826C296.859 126.77 296.891 126.672 296.862 126.583L295.89 123.565C295.825 123.365 296.055 123.199 296.225 123.323L298.785 125.193C298.861 125.248 298.964 125.248 299.041 125.193L301.61 123.336Z" fill="#111B39"/>
<defs>
<radialGradient id="paint0_radial_3344_2940" cx="0" cy="0" r="1" gradientUnits="userSpaceOnUse" gradientTransform="translate(331.994 206.085) rotate(90) scale(457.415 409.334)">
<stop stop-color="#AEAEB2"/>
<stop offset="0.76" stop-color="#EBEBF5" stop-opacity="0.16"/>
</radialGradient>
<linearGradient id="paint1_linear_3344_2940" x1="345.73" y1="180.203" x2="343.449" y2="161.89" gradientUnits="userSpaceOnUse">
<stop stop-color="#FF6381"/>
<stop offset="1" stop-color="#FFFDFE" stop-opacity="0"/>
</linearGradient>
<clipPath id="clip0_3344_2940">
<rect width="14.1111" height="13.2292" fill="white" transform="translate(352.807 145.729)"/>
</clipPath>
<clipPath id="clip1_3344_2940">
<rect width="13.2292" height="14.9931" fill="white" transform="translate(339.798 166.562)"/>
</clipPath>
</defs>
</svg>
