<svg width="80" height="80" viewBox="0 0 80 80" fill="none" xmlns="http://www.w3.org/2000/svg">
<path fill-rule="evenodd" clip-rule="evenodd" d="M0 40C0 17.9038 17.9038 0 40 0C62.0962 0 80 17.9038 80 40C80 62.0962 62.0962 80 40 80C17.9038 80 0 62.0962 0 40ZM58.7318 57.3504C58.1551 57.949 57.1556 57.949 56.5597 57.3504L21.9602 22.631C21.3835 22.0517 21.3835 21.0283 21.9602 20.449C22.5561 19.8503 23.5364 19.8503 24.1515 20.449L58.7318 55.1877C59.3277 55.7863 59.3085 56.7518 58.7318 57.3504ZM61 38.639C61 42.9258 59.7506 46.9423 57.4439 50.1671L54.9066 47.6182C56.5982 45.0692 57.5016 41.9796 57.5016 38.639C57.5016 34.4873 56.0984 30.7026 53.5611 27.8833C52.8114 27.0337 52.6 26.0489 53.2535 25.2765C53.9455 24.4654 55.1373 24.4268 56.0215 25.373C59.1931 28.7909 61 33.5605 61 38.639ZM26.4389 49.414C27.1886 50.2636 27.4 51.2484 26.7272 52.0208C26.0545 52.8319 24.8435 52.8705 23.9785 51.9243C20.7684 48.4678 19 43.7368 19 38.639C19 34.3136 20.3071 30.2198 22.6522 27.0144L25.1703 29.544C23.4403 32.1122 22.4984 35.2404 22.4984 38.639C22.4984 42.7906 23.9016 46.5947 26.4389 49.414ZM52.773 38.639C52.773 40.6472 52.3117 42.5589 51.4659 44.1617L48.7556 41.4389C49.0824 40.57 49.2746 39.6045 49.2746 38.639C49.2746 36.708 48.6595 34.8735 47.6215 33.4832C46.9872 32.595 46.7373 31.6488 47.3716 30.8764C48.0636 30.0653 49.3515 30.0267 50.1588 31.0115C51.8119 33.0391 52.773 35.7425 52.773 38.639ZM32.3785 43.8141C33.0128 44.7023 33.2627 45.6485 32.6284 46.4016C31.9364 47.232 30.6485 47.2513 29.8412 46.2858C28.1689 44.2582 27.227 41.5355 27.227 38.639C27.227 36.6114 27.6883 34.6611 28.5725 32.9812L31.3021 35.7039C30.9368 36.6308 30.7254 37.6156 30.7254 38.639C30.7254 40.57 31.3021 42.4624 32.3785 43.8141ZM41.6627 59.1269C41.6627 60.2469 41.0284 61 39.9904 61C39.0101 61 38.3373 60.2276 38.3373 59.1269V42.7713L41.6627 46.112V59.1269Z" fill="#2C2C2E"/>
</svg>
