<svg width="14" height="14" viewBox="0 0 14 14" fill="none" xmlns="http://www.w3.org/2000/svg">
<path d="M12.72 7.13672C12.72 6.71422 12.6821 6.30797 12.6117 5.91797H7V8.22547H10.2067C10.0658 8.96755 9.64333 9.59589 9.00958 10.0184V11.5188H10.9433C12.07 10.4788 12.72 8.9513 12.72 7.13672Z" fill="#4285F4"/>
<path d="M7.00007 12.9576C8.60882 12.9576 9.95757 12.4267 10.9434 11.5167L9.00966 10.0163C8.47882 10.3738 7.80174 10.5905 7.00007 10.5905C5.45091 10.5905 4.13466 9.54505 3.66341 8.13672H1.68091V9.67505C2.66132 11.6196 4.67091 12.9576 7.00007 12.9576Z" fill="#34A853"/>
<path d="M3.66366 8.13063C3.54449 7.77313 3.47408 7.39396 3.47408 6.99854C3.47408 6.60313 3.54449 6.22396 3.66366 5.86646V4.32812H1.68116C1.27491 5.12979 1.04199 6.03437 1.04199 6.99854C1.04199 7.96271 1.27491 8.86729 1.68116 9.66896L3.22491 8.46646L3.66366 8.13063Z" fill="#FBBC05"/>
<path d="M6.99983 3.41547C7.87733 3.41547 8.65733 3.7188 9.28025 4.3038L10.9865 2.59755C9.95191 1.63339 8.60858 1.04297 6.99983 1.04297C4.67066 1.04297 2.66108 2.38089 1.68066 4.33089L3.66316 5.86922C4.13441 4.46089 5.45066 3.41547 6.99983 3.41547Z" fill="#EA4335"/>
</svg>
