<svg width="14" height="14" viewBox="0 0 14 14" fill="none" xmlns="http://www.w3.org/2000/svg">
<path d="M12.72 7.13574C12.72 6.71324 12.6821 6.30699 12.6117 5.91699H7V8.22449H10.2067C10.0658 8.96658 9.64333 9.59491 9.00958 10.0174V11.5178H10.9433C12.07 10.4778 12.72 8.95033 12.72 7.13574Z" fill="#4285F4"/>
<path d="M7.00007 12.9585C8.60882 12.9585 9.95757 12.4277 10.9434 11.5177L9.00966 10.0173C8.47882 10.3748 7.80174 10.5914 7.00007 10.5914C5.45091 10.5914 4.13466 9.54603 3.66341 8.1377H1.68091V9.67603C2.66132 11.6206 4.67091 12.9585 7.00007 12.9585Z" fill="#34A853"/>
<path d="M3.66366 8.1316C3.54449 7.7741 3.47408 7.39493 3.47408 6.99952C3.47408 6.6041 3.54449 6.22493 3.66366 5.86743V4.3291H1.68116C1.27491 5.13077 1.04199 6.03535 1.04199 6.99952C1.04199 7.96369 1.27491 8.86827 1.68116 9.66994L3.22491 8.46743L3.66366 8.1316Z" fill="#FBBC05"/>
<path d="M6.99983 3.41449C7.87733 3.41449 8.65733 3.71783 9.28025 4.30283L10.9865 2.59658C9.95191 1.63241 8.60858 1.04199 6.99983 1.04199C4.67066 1.04199 2.66108 2.37991 1.68066 4.32991L3.66316 5.86824C4.13441 4.45991 5.45066 3.41449 6.99983 3.41449Z" fill="#EA4335"/>
</svg>
