<svg width="16" height="16" viewBox="0 0 16 16" fill="none" xmlns="http://www.w3.org/2000/svg">
<path d="M3.90943 0C4.03126 0.0227937 4.15387 0.0392971 4.27412 0.0699508C5.31918 0.32761 6.27784 0.856279 7.0534 1.60264C7.14267 1.6907 7.22175 1.78851 7.28918 1.89424C7.40994 2.06071 7.462 2.26725 7.43464 2.47108C7.40728 2.6749 7.30258 2.8604 7.14219 2.98913C6.89415 3.19737 6.59986 3.34317 6.28391 3.41434C5.26699 3.72122 4.18451 3.73756 3.1588 3.4615C2.88066 3.398 2.62269 3.26624 2.40821 3.07811C2.19373 2.88998 2.02951 2.6514 1.9303 2.38391C1.80828 1.9981 1.81253 1.58341 1.94244 1.20018C2.07235 0.816957 2.32115 0.485172 2.65263 0.253088C2.88817 0.148922 3.13186 0.064276 3.38125 0H3.90943ZM5.98523 2.26287C5.96649 2.23693 5.94516 2.21296 5.92157 2.19134C5.54665 1.96104 5.18196 1.70796 4.79132 1.50753C4.38019 1.27755 3.90955 1.17598 3.44016 1.21593C3.37127 1.21675 3.30429 1.23856 3.24812 1.27844C3.19195 1.31832 3.14928 1.37439 3.12579 1.43915C2.94108 1.96891 3.02597 2.15047 3.50463 2.31474C3.53869 2.32627 3.57329 2.33675 3.6084 2.34618C4.18756 2.47668 4.78696 2.49004 5.37136 2.38548C5.57336 2.35718 5.76751 2.30767 5.98523 2.26287Z" fill="#FF6381"/>
<path d="M11.9988 0C12.2867 0.0409843 12.5636 0.139052 12.8131 0.288456C13.0148 0.432607 13.1829 0.618754 13.3059 0.834084C13.4288 1.04941 13.5036 1.28881 13.5252 1.53582C13.6069 1.96134 13.5181 2.40194 13.2778 2.76251C13.0375 3.12308 12.6651 3.3747 12.2409 3.46308C11.4711 3.6766 10.6634 3.71554 9.87661 3.57704C9.41584 3.5277 8.96731 3.39787 8.55142 3.19348C8.42572 3.13684 8.31242 3.05597 8.21801 2.95549C8.1236 2.85501 8.04995 2.7369 8.00124 2.60792C7.95341 2.44174 7.95403 2.26534 8.00304 2.09951C8.05206 1.93367 8.14742 1.78528 8.2779 1.6718C8.68826 1.24216 9.17018 0.887109 9.70213 0.622505C10.242 0.306992 10.8391 0.101807 11.4588 0.0188594C11.4738 0.0147078 11.4881 0.00835487 11.5013 0H11.9988ZM9.43646 2.22121V2.28095C9.72098 2.32811 10.0039 2.38941 10.29 2.41928C10.8168 2.49706 11.3541 2.46278 11.8667 2.31867C12.3478 2.16147 12.435 1.9752 12.2833 1.49496C12.2634 1.41643 12.2183 1.34654 12.1551 1.29591C12.0918 1.24527 12.0138 1.21664 11.9328 1.21435C11.5893 1.18875 11.2445 1.24254 10.9251 1.37155C10.387 1.57396 9.88443 1.86077 9.43646 2.22121Z" fill="#FF6381"/>
<path d="M7.05962 12.4705C7.05962 13.5426 7.05962 14.6147 7.05962 15.6868C7.05962 15.9509 7.01799 15.9917 6.75154 15.9917H1.70784C1.59168 16.0063 1.47369 15.9941 1.36296 15.9562C1.25222 15.9182 1.15163 15.8554 1.06888 15.7725C0.986138 15.6897 0.923416 15.5891 0.88553 15.4783C0.847643 15.3675 0.835625 15.2496 0.850317 15.1334C0.850317 13.3325 0.850317 11.5317 0.850317 9.7313C0.836843 9.61644 0.849436 9.50001 0.887209 9.39069C0.924981 9.28138 0.986935 9.182 1.06845 9.09995C1.14997 9.01791 1.24895 8.95532 1.35802 8.91684C1.46708 8.87836 1.58343 8.86499 1.69839 8.87772C3.36416 8.87772 5.02967 8.87772 6.69493 8.87772C6.97788 8.87772 7.05885 8.95632 7.05885 9.2377C7.0599 10.3156 7.06014 11.3932 7.05962 12.4705Z" fill="#FF6381"/>
<path d="M8.31738 12.4728C8.31738 11.4007 8.31738 10.3286 8.31738 9.2565C8.31738 8.95311 8.39126 8.87844 8.69543 8.87844C10.3554 8.87844 12.0157 8.87844 13.6763 8.87844C13.7912 8.86539 13.9076 8.87845 14.0167 8.91662C14.1259 8.9548 14.2251 9.01712 14.3068 9.09893C14.3885 9.18075 14.4508 9.27996 14.4889 9.38917C14.5269 9.49838 14.5399 9.61477 14.5267 9.72967C14.5267 11.5359 14.5267 13.3418 14.5267 15.1475C14.54 15.2613 14.5275 15.3767 14.4901 15.485C14.4527 15.5933 14.3914 15.6919 14.3108 15.7733C14.2302 15.8548 14.1323 15.917 14.0244 15.9555C13.9164 15.994 13.8012 16.0077 13.6873 15.9956H8.61292C8.36219 15.9956 8.31738 15.95 8.31738 15.6922C8.31738 14.618 8.31738 13.5449 8.31738 12.4728Z" fill="#FF6381"/>
<path d="M3.75471 4.21042H6.70457C6.99067 4.21042 7.05979 4.28116 7.06058 4.57119C7.06058 5.62179 7.06058 6.67267 7.06058 7.7238C7.06058 7.9761 7.00087 8.03819 6.74621 8.03819C4.77495 8.03819 2.8034 8.03819 0.83161 8.03819C0.71931 8.04933 0.605969 8.03522 0.499828 7.99688C0.393687 7.95855 0.297446 7.89697 0.218178 7.81665C0.13891 7.73632 0.0786116 7.63929 0.041685 7.53265C0.00475833 7.42602 -0.00787547 7.31247 0.00474568 7.20033C0.00474568 6.48246 0.00474568 5.76458 0.00474568 5.04671C-0.00744903 4.93452 0.00560287 4.82103 0.0429323 4.71454C0.0802617 4.60804 0.14096 4.51124 0.220529 4.43122C0.300098 4.3512 0.396521 4.28998 0.502802 4.25205C0.609084 4.21412 0.722522 4.20043 0.834776 4.21199C1.80836 4.20937 2.78165 4.20884 3.75471 4.21042Z" fill="#FF6381"/>
<path d="M11.6287 4.21036H14.5165C14.6325 4.19542 14.7503 4.20731 14.861 4.2451C14.9717 4.2829 15.0722 4.34559 15.1548 4.42836C15.2374 4.51113 15.3 4.61176 15.3376 4.7225C15.3751 4.83324 15.3868 4.95113 15.3717 5.06709C15.3717 5.77449 15.3717 6.48188 15.3717 7.18927C15.3855 7.30408 15.3731 7.42054 15.3353 7.52983C15.2974 7.63911 15.2352 7.73835 15.1533 7.82001C15.0714 7.90167 14.972 7.96361 14.8626 8.00113C14.7533 8.03865 14.6368 8.05077 14.522 8.03657C12.5832 8.03657 10.6426 8.03657 8.70016 8.03657C8.64769 8.03736 8.5952 8.03526 8.54295 8.03028C8.38575 8.01299 8.31738 7.94225 8.31738 7.78741C8.31738 6.68702 8.31738 5.58401 8.31738 4.47839C8.31738 4.28267 8.40227 4.21036 8.61527 4.20958L11.6287 4.21036Z" fill="#FF6381"/>
</svg>
