<svg width="13" height="15" viewBox="0 0 13 15" fill="none" xmlns="http://www.w3.org/2000/svg">
<g id="Frame 2">
<path id="&#244;&#128;&#145;&#138;" d="M0.918587 12.3943V8.29391H5.86431V14.1382H2.72913C2.16112 14.1382 1.71736 13.9896 1.39785 13.6923C1.07834 13.3949 0.918587 12.9623 0.918587 12.3943ZM7.12238 14.1382V8.29391H12.0748V12.3943C12.0748 12.9623 11.915 13.3949 11.5955 13.6923C11.2804 13.9896 10.8389 14.1382 10.2709 14.1382H7.12238ZM0 6.41014V4.92576C0 4.51749 0.113159 4.21796 0.339478 4.02714C0.570234 3.83632 0.883086 3.74091 1.27803 3.74091H2.60266C2.40741 3.55453 2.25431 3.33709 2.14337 3.08858C2.03687 2.84008 1.98362 2.56938 1.98362 2.2765C1.98362 1.83274 2.09012 1.44001 2.30312 1.09831C2.51613 0.756614 2.80014 0.488138 3.15515 0.292883C3.51459 0.0976276 3.9162 0 4.35996 0C4.85253 0 5.28964 0.133129 5.67128 0.399386C6.05735 0.665643 6.33248 1.04062 6.49667 1.52432C6.66086 1.04062 6.936 0.665643 7.32207 0.399386C7.70814 0.133129 8.14525 0 8.63338 0C9.07715 0 9.47653 0.0976276 9.83154 0.292883C10.191 0.488138 10.4772 0.756614 10.6902 1.09831C10.9032 1.44001 11.0097 1.83274 11.0097 2.2765C11.0097 2.56938 10.9565 2.84008 10.85 3.08858C10.7435 3.33709 10.5926 3.55453 10.3973 3.74091H11.722C12.1302 3.74091 12.4453 3.83632 12.6672 4.02714C12.8891 4.21796 13 4.51749 13 4.92576V6.41014C13 6.7829 12.8979 7.05581 12.6938 7.22888C12.4897 7.39751 12.2034 7.48182 11.8351 7.48182H7.12238V3.74091H8.1275C8.63782 3.74091 9.03277 3.60778 9.31234 3.34153C9.59635 3.07527 9.73835 2.7602 9.73835 2.39631C9.73835 2.0413 9.62519 1.76395 9.39887 1.56426C9.17255 1.36013 8.87967 1.25806 8.52023 1.25806C8.13859 1.25806 7.81021 1.40007 7.53507 1.68408C7.25994 1.96365 7.12238 2.33862 7.12238 2.80901V3.74091H5.86431V2.80901C5.86431 2.33862 5.72896 1.96365 5.45827 1.68408C5.18757 1.40007 4.85919 1.25806 4.47312 1.25806C4.11367 1.25806 3.82079 1.36013 3.59447 1.56426C3.36815 1.76395 3.25499 2.0413 3.25499 2.39631C3.25499 2.7602 3.39478 3.07527 3.67435 3.34153C3.95835 3.60778 4.35552 3.74091 4.86585 3.74091H5.86431V7.48182H1.16487C0.796552 7.48182 0.510326 7.39751 0.306196 7.22888C0.102065 7.05581 0 6.7829 0 6.41014Z" fill="#FF6381"/>
</g>
</svg>
