<svg width="80" height="80" viewBox="0 0 80 80" fill="none" xmlns="http://www.w3.org/2000/svg">
<path d="M40 0C17.9038 0 0 17.9038 0 40C0 62.0962 17.9038 80 40 80C62.0962 80 80 62.0962 80 40C80 17.9038 62.0962 0 40 0ZM43.3077 21.0769L42.7115 43.2115C42.6731 44.7885 41.5769 46.0577 40 46.0577C38.4231 46.0577 37.3269 44.7885 37.2885 43.2115L36.6923 21.0769C36.6539 19.2308 38.1346 17.6923 40 17.6923C41.8462 17.6923 43.3462 19.2115 43.3077 21.0769ZM40 58.8462C37.9423 58.8462 36.3269 57.2885 36.3269 55.3077C36.3269 53.3269 37.9423 51.7692 40 51.7692C42.0577 51.7692 43.6731 53.3269 43.6731 55.3077C43.6731 57.2885 42.0577 58.8462 40 58.8462Z" fill="#FF453A"/>
<path d="M42.7115 43.2115L43.3077 21.0769C43.3462 19.2115 41.8462 17.6923 40 17.6923C38.1346 17.6923 36.6539 19.2308 36.6923 21.0769L37.2885 43.2115C37.3269 44.7885 38.4231 46.0577 40 46.0577C41.5769 46.0577 42.6731 44.7885 42.7115 43.2115Z" fill="white"/>
<path d="M36.3271 55.308C36.3271 57.2888 37.9425 58.8465 40.0002 58.8465C42.0579 58.8465 43.6733 57.2888 43.6733 55.308C43.6733 53.3272 42.0579 51.7695 40.0002 51.7695C37.9425 51.7695 36.3271 53.3272 36.3271 55.308Z" fill="white"/>
</svg>
