<svg width="106" height="146" viewBox="0 0 106 146" fill="none" xmlns="http://www.w3.org/2000/svg">
<g clip-path="url(#clip0_3197_3199)">
<path d="M88.9672 49.7454C85.8501 53.1691 81.1857 54.6229 78.5476 52.9912C75.911 51.3596 76.3016 47.2622 79.4204 43.8371C82.5376 40.4134 87.2019 38.9596 89.8385 40.5913C92.475 42.2229 92.086 46.3217 88.9672 49.7454Z" fill="#FFCC00"/>
<path d="M90.5348 41.1445L91.969 42.6143C93.8076 44.4968 93.2126 48.129 90.4036 51.2144C87.2864 54.6381 82.6205 56.0919 79.9839 54.4602C79.723 54.2984 79.4911 54.1132 79.2897 53.9061L77.8555 52.4363C78.0569 52.6434 78.2888 52.8286 78.5497 52.9904C81.1863 54.6221 85.8506 53.1683 88.9693 49.7446C91.7783 46.6592 92.3734 43.027 90.5348 41.1445Z" fill="#FFCC00"/>
<g opacity="0.1">
<path d="M89.7289 43.1771C90.9831 45.6764 88.5967 49.8393 84.8753 51.6212C82.8811 52.5981 80.9144 52.6404 79.6632 51.8662C79.1445 51.5454 78.7493 51.0846 78.525 50.4926C77.4234 47.7236 80.3285 43.4425 84.1414 41.9786C82.0831 42.7805 80.0905 44.6003 79.2192 46.5192C78.2183 48.6597 78.6684 50.4445 80.0096 51.2742C80.9098 51.8312 82.2128 51.9595 83.7493 51.4754C87.5684 50.3001 90.6047 46.0307 89.529 43.3069C89.323 42.7543 88.9492 42.3168 88.4549 42.0121C87.5745 41.4667 86.3126 41.3384 84.9471 41.7132C86.3981 41.3122 87.7454 41.4449 88.6852 42.0252C89.1399 42.3066 89.5 42.693 89.7289 43.1757V43.1771Z" fill="black"/>
</g>
<g opacity="0.1">
<path d="M90.5348 41.1445L91.969 42.6143C93.8076 44.4968 93.2126 48.129 90.4036 51.2144C87.2864 54.6381 82.6205 56.0919 79.9839 54.4602C79.723 54.2984 79.4911 54.1132 79.2897 53.9061L77.8555 52.4363C78.0569 52.6434 78.2888 52.8286 78.5497 52.9904C81.1863 54.6221 85.8506 53.1683 88.9693 49.7446C91.7783 46.6592 92.3734 43.027 90.5348 41.1445Z" fill="black"/>
</g>
</g>
<path opacity="0.5" d="M20.2341 86.5648L6.54324 66.6741L87.8203 41.3595L86.4653 73.4696L20.2341 86.5648Z" fill="url(#paint0_linear_3197_3199)"/>
<g clip-path="url(#clip1_3197_3199)">
<path d="M76.9842 76.9828C77.5204 72.6782 74.9569 67.9374 71.261 66.392C67.5603 64.8466 64.1294 67.081 63.5915 71.3856C63.0552 75.6885 65.6171 80.431 69.3162 81.9764C73.0137 83.5218 76.4463 81.2874 76.9842 76.9828Z" fill="#FFCC00"/>
<path d="M71.8206 82.7837L73.4941 82.1108C72.2616 82.6066 70.811 82.6001 69.3168 81.9755C65.6177 80.4301 63.0558 75.6877 63.5921 71.3847C63.9119 68.8187 65.2607 66.9883 67.0828 66.2559L65.4093 66.9288C63.5872 67.6612 62.2384 69.4916 61.9186 72.0576C61.3823 76.3606 63.9442 81.1014 67.6433 82.6484C69.1359 83.273 70.5865 83.2795 71.8206 82.7837Z" fill="#FFCC00"/>
<g opacity="0.1">
<path d="M65.1349 74.4953C65.8666 78.6791 69.5786 81.7731 72.6736 80.7622C74.3439 80.2471 75.4649 78.597 75.7201 76.5542C75.8251 75.7074 75.7831 74.7947 75.5683 73.8658C74.5991 69.4823 70.5285 66.691 67.5659 68.1752C69.1716 67.388 71.3248 67.9192 72.9095 69.5435C74.6928 71.3304 75.4617 73.9318 75.1887 76.1211C75.0045 77.5909 74.3519 78.8771 73.218 79.6048C70.4154 81.4544 66.2801 78.7886 65.3206 74.484C65.1187 73.6211 65.0783 72.7567 65.1785 71.9486C65.3562 70.5223 65.9765 69.2795 66.9392 68.5615C65.9135 69.323 65.2479 70.643 65.0573 72.1643C64.9653 72.9064 64.9863 73.6968 65.1333 74.4936L65.1349 74.4953Z" fill="black"/>
</g>
<g opacity="0.1">
<path d="M71.8206 82.7856L73.4941 82.1127C72.2616 82.6085 70.811 82.6021 69.3168 81.9775C65.6177 80.4321 63.0558 75.6896 63.5921 71.3866C63.9119 68.8206 65.2607 66.9903 67.0828 66.2578L65.4093 66.9307C63.5872 67.6632 62.2384 69.4935 61.9186 72.0595C61.3823 76.3625 63.9442 81.1034 67.6433 82.6504C69.1359 83.275 70.5865 83.2814 71.8206 82.7856Z" fill="black"/>
</g>
</g>
<path d="M61.7197 75.863L17.5757 84.5911C16.87 84.7306 16.411 85.4159 16.5505 86.1216L23.593 121.74C24.808 127.885 30.9159 131.903 37.1642 130.668L87.5913 120.697C93.8396 119.462 97.9589 113.422 96.7439 107.277L89.7014 71.6582C89.5618 70.9525 88.8766 70.4935 88.1708 70.633L61.7197 75.863Z" fill="#FF6381"/>
<path d="M59.1427 76.3702L46.6025 78.8496L56.107 126.92L68.6472 124.441L59.1427 76.3702Z" fill="#111B39"/>
<path d="M95.4404 100.685L92.9609 88.1445L19.8101 102.608L22.2896 115.148L95.4404 100.685Z" fill="#111B39"/>
<ellipse cx="67.1434" cy="49.2022" rx="2.39357" ry="2.39357" transform="rotate(-11.1843 67.1434 49.2022)" fill="#FF6381"/>
<ellipse cx="56.6685" cy="57.6684" rx="1.42005" ry="1.42005" transform="rotate(-11.1843 56.6685 57.6684)" fill="#111B39"/>
<ellipse cx="52.611" cy="69.2308" rx="1.36776" ry="1.36776" transform="rotate(-11.1843 52.611 69.2308)" fill="#FF6381"/>
<ellipse cx="38.6071" cy="65.6077" rx="1.36776" ry="1.36776" transform="rotate(-11.1843 38.6071 65.6077)" fill="#FF6381"/>
<path d="M28.6095 71.9249C28.6629 71.7211 28.9458 71.7047 29.0224 71.901L29.9861 74.3705C30.0204 74.4582 30.1073 74.5139 30.2013 74.5085L32.8478 74.355C33.058 74.3428 33.1611 74.6069 32.9981 74.7403L30.9473 76.42C30.8744 76.4797 30.8482 76.5795 30.8825 76.6673L31.8462 79.1368C31.9228 79.333 31.7036 79.5126 31.5263 79.3988L29.2951 77.9674C29.2158 77.9166 29.1127 77.9226 29.0399 77.9822L26.989 79.6619C26.8261 79.7954 26.5876 79.6424 26.6409 79.4386L27.3128 76.8743C27.3367 76.7831 27.2992 76.687 27.2199 76.6362L24.9886 75.2047C24.8113 75.091 24.8832 74.8169 25.0935 74.8047L27.7399 74.6512C27.834 74.6458 27.9138 74.5804 27.9377 74.4893L28.6095 71.9249Z" fill="#111B39"/>
<path fill-rule="evenodd" clip-rule="evenodd" d="M28.66 45.9666L14.1055 55.533C8.5492 59.185 6.86115 66.5239 10.3548 71.8392L12.3702 74.9054C12.7653 75.5066 13.573 75.6736 14.1742 75.2785L36.3747 60.6865L36.3749 60.6869L50.7395 51.2453L50.7397 51.2455L74.3091 35.7537C74.9103 35.3586 75.0773 34.5509 74.6822 33.9497L72.6668 30.8835C69.1731 25.5682 61.7667 24.207 56.2104 27.859L56.2088 27.8601L43.0263 36.5247L43.0261 36.5244L28.6602 45.9669L28.66 45.9666Z" fill="#FF6381"/>
<path d="M40.4995 38.184L29.8174 45.2051L38.908 59.0357L49.5901 52.0146L40.4995 38.184Z" fill="#111B39"/>
<path d="M28.0114 35.0863L11.4925 36.053C8.67834 36.2184 7.09499 39.3639 8.64214 41.7177L13.223 48.6872C14.3595 50.4162 16.6834 50.8952 18.4148 49.7571L30.2844 41.9554C33.4907 39.848 31.8415 34.8615 28.013 35.0852L28.0114 35.0863Z" fill="#111B39"/>
<path d="M32.3428 32.2389L39.7837 17.4573C41.0517 14.9396 44.5672 14.7337 46.1144 17.0875L50.6952 24.0569C51.8317 25.786 51.3497 28.1092 49.6182 29.2473L37.7486 37.0489C34.5423 39.1564 30.6189 35.6646 32.3428 32.2389Z" fill="#111B39"/>
<path d="M77.2294 19.8739C76.8346 19.5387 76.6366 19.144 76.6403 18.6896C76.6441 18.2351 76.8714 17.8007 77.3325 17.3854L82.5102 12.7988C83.0603 12.3176 83.7184 12.0649 84.484 12.0355C85.2496 12.0062 85.9079 12.2255 86.459 12.6934L93.2057 18.422C93.7568 18.8899 94.0799 19.5039 94.1751 20.2641C94.2703 21.0244 94.1276 21.7147 93.742 22.3356L90.042 28.1768C89.7093 28.6964 89.3151 28.994 88.8673 29.0713C88.4194 29.1487 87.9979 29.0173 87.6031 28.6821C87.3646 28.4795 87.1944 28.2689 87.0946 28.0474C86.9949 27.8259 86.9342 27.614 86.9196 27.4034L86.6751 24.4075L81.5979 20.0965L78.602 20.341C78.3891 20.3584 78.1678 20.3356 77.9381 20.2727C77.7057 20.2075 77.4679 20.0764 77.2294 19.8739ZM89.0209 23.4506C89.1881 23.5926 89.387 23.6529 89.6151 23.6343C89.8432 23.6157 90.032 23.5212 90.1716 23.3567C90.3113 23.1922 90.3739 22.9906 90.3553 22.7625C90.3367 22.5344 90.2422 22.3456 90.0777 22.206C89.9132 22.0663 89.7116 22.0037 89.4835 22.0223C89.2554 22.0409 89.0667 22.1354 88.927 22.2999C88.7873 22.4644 88.7247 22.666 88.7433 22.8941C88.7619 23.1222 88.8564 23.3109 89.0209 23.4506ZM89.417 20.3004C89.5842 20.4424 89.783 20.5027 90.0112 20.4841C90.2393 20.4654 90.428 20.3709 90.5677 20.2064C90.7074 20.042 90.77 19.8404 90.7514 19.6123C90.7328 19.3842 90.6383 19.1954 90.4738 19.0557C90.3093 18.9161 90.1077 18.8534 89.8796 18.872C89.6515 18.8907 89.4627 18.9852 89.3231 19.1496C89.1834 19.3141 89.1208 19.5157 89.1394 19.7438C89.158 19.9719 89.2525 20.1607 89.417 20.3004ZM82.857 18.0801L83.6356 18.7412L84.6272 17.5734L85.7951 18.565L86.4562 17.7864L85.2883 16.7948L86.2799 15.6269L85.5014 14.9658L84.5098 16.1337L83.3419 15.1421L82.6808 15.9207L83.8487 16.9123L82.857 18.0801Z" fill="#111B39"/>
<path d="M18.0266 14.1222C18.1973 13.9989 18.4262 14.166 18.3606 14.3662L17.1875 17.9472C17.1581 18.0367 17.1898 18.1349 17.2658 18.1904L20.3091 20.4128C20.4792 20.537 20.3909 20.8063 20.1803 20.8058L16.412 20.7967C16.3178 20.7964 16.2342 20.8569 16.2049 20.9464L15.0317 24.5274C14.9661 24.7276 14.6827 24.7269 14.6181 24.5264L13.4624 20.9397C13.4335 20.8501 13.3501 20.7892 13.256 20.789L9.48768 20.7798C9.27705 20.7793 9.19013 20.5096 9.36083 20.3862L12.4148 18.1786C12.4912 18.1235 12.5233 18.0254 12.4944 17.9357L11.3387 14.3491C11.2741 14.1486 11.5037 13.9826 11.6738 14.1068L14.717 16.3291C14.7931 16.3847 14.8963 16.3849 14.9727 16.3298L18.0266 14.1222Z" fill="#111B39"/>
<defs>
<linearGradient id="paint0_linear_3197_3199" x1="68.6662" y1="79.5568" x2="66.0446" y2="58.5046" gradientUnits="userSpaceOnUse">
<stop stop-color="#FF6381"/>
<stop offset="1" stop-color="#FFFDFE" stop-opacity="0"/>
</linearGradient>
<clipPath id="clip0_3197_3199">
<rect width="16.2222" height="15.2083" fill="white" transform="translate(76.8018 39.9219)"/>
</clipPath>
<clipPath id="clip1_3197_3199">
<rect width="15.2083" height="17.2361" fill="white" transform="translate(61.8477 63.875)"/>
</clipPath>
</defs>
</svg>
