<svg width="393" height="414" viewBox="0 0 393 414" fill="none" xmlns="http://www.w3.org/2000/svg">
<path opacity="0.3" d="M539.246 544.627L208.152 232.246L615.752 395.469C617.06 395.996 618.49 395.155 618.847 393.655L637.572 314.465C637.93 312.965 637.055 311.435 635.685 311.162L209.842 225.072L635.051 138.991C636.456 138.708 637.339 137.147 636.962 135.607L617.75 56.559C617.373 55.0188 615.911 54.1575 614.561 54.7047L208.105 217.907L539.057 -96.2978L483.323 -158.353L203.391 212.659L347.924 -242.143C348.409 -243.653 347.624 -245.314 346.235 -245.73L275.476 -266.898C274.087 -267.313 272.676 -266.31 272.427 -264.729L196.983 210.743L118.364 -264.8C118.105 -266.34 116.733 -267.313 115.383 -266.908L44.6282 -245.699C43.2785 -245.294 42.5222 -243.683 43.0076 -242.203L190.57 212.679L-90.1243 -156.113C-91.0441 -157.319 -92.6764 -157.39 -93.6701 -156.275L-145.298 -98.365C-146.292 -97.2504 -146.223 -95.4264 -145.14 -94.403L185.89 217.918L-221.855 54.6338C-223.09 54.1372 -224.439 54.9276 -224.769 56.3462L-243.566 135.85C-243.897 137.269 -243.076 138.698 -241.787 138.961L184.2 225.082L-241.317 311.223C-242.549 311.476 -243.334 312.854 -243.003 314.212L-223.625 393.939C-223.294 395.296 -221.995 396.056 -220.818 395.58L185.937 232.256L-143.062 544.607C-144.11 545.6 -144.177 547.393 -143.194 548.488L-91.1098 606.479C-90.1269 607.574 -88.5223 607.493 -87.6376 606.317L190.643 237.495L46.0822 692.417C45.6246 693.866 46.3734 695.457 47.7076 695.853L118.675 717.081C120.01 717.476 121.357 716.524 121.597 715.004L197.069 239.41L275.678 714.994C275.928 716.514 277.292 717.476 278.632 717.081L349.441 695.863C350.782 695.457 351.52 693.867 351.044 692.407L203.473 237.495L484.221 606.347C485.105 607.513 486.692 607.584 487.649 606.51L539.404 548.457C540.362 547.383 540.292 545.61 539.246 544.627Z" fill="url(#paint0_radial_3344_2771)"/>
<g opacity="0.3">
<path d="M99.8055 205.789C95.2469 199.037 85.8208 195.433 78.7531 197.733C71.6787 200.04 69.6415 207.376 74.1979 214.13C78.7545 220.881 88.1803 224.489 95.2525 222.184C102.322 219.881 104.362 212.544 99.8055 205.789Z" fill="#FFC727"/>
<path d="M99.7452 220.288L101.253 217.301C100.143 219.502 98.1088 221.255 95.2516 222.186C88.1794 224.49 78.7536 220.882 74.197 214.132C71.4797 210.106 71.1068 205.873 72.7487 202.621L71.241 205.608C69.5991 208.86 69.972 213.093 72.6892 217.119C77.2458 223.869 86.6697 227.475 93.7439 225.173C96.5988 224.244 98.6328 222.491 99.7452 220.288Z" fill="#FFC727"/>
<g opacity="0.1">
<path d="M80.1886 216.664C86.3694 221.705 95.3692 221.579 98.4455 216.385C100.143 213.626 99.6745 209.925 97.5122 206.719C96.6148 205.392 95.4307 204.149 93.9853 203.094C87.2267 198.059 78.0992 199.049 75.7914 204.753C77.0635 201.686 80.726 199.822 84.9421 200.199C89.6362 200.564 93.9178 203.317 96.2359 206.752C97.791 209.058 98.4654 211.674 97.7787 214.083C96.1449 220.11 87.082 221.357 80.4342 216.422C79.0882 215.445 77.9659 214.269 77.1094 213.002C75.599 210.764 74.933 208.249 75.3924 206.062C74.8986 208.387 75.5967 211.067 77.2062 213.455C77.9926 214.618 78.9965 215.713 80.1844 216.664L80.1886 216.664Z" fill="black"/>
</g>
<g opacity="0.1">
<path d="M99.7461 220.288L101.254 217.301C100.144 219.502 98.1097 221.255 95.2526 222.186C88.1804 224.49 78.7545 220.882 74.1979 214.132C71.4807 210.106 71.1078 205.873 72.7497 202.621L71.2419 205.608C69.6001 208.86 69.973 213.093 72.6902 217.119C77.2468 223.869 86.6707 227.475 93.7449 225.173C96.5998 224.244 98.6338 222.491 99.7461 220.288Z" fill="black"/>
</g>
</g>
<g opacity="0.3">
<path d="M-9.79773 128.919C2.53187 138.742 22.0222 139.931 33.7358 131.587C45.4585 123.227 44.9667 108.504 32.6401 98.6763C20.3155 88.8564 0.823272 87.6592 -10.8964 96.0133C-22.6131 104.362 -22.1243 119.091 -9.79773 128.919Z" fill="#FFC727"/>
<path d="M-18.0923 102.12L-19.1441 108.508C-18.3702 103.803 -15.6318 99.3867 -10.8967 96.0129C0.82296 87.6588 20.3152 88.856 32.6398 98.6759C39.9893 104.532 43.1316 112.13 41.9858 119.086L43.0376 112.697C44.1833 105.742 41.0411 98.1434 33.6916 92.2874C21.367 82.4675 1.87969 81.2733 -9.84498 89.6244C-14.577 92.9932 -17.3154 97.4094 -18.0923 102.12Z" fill="#FFC727"/>
<g opacity="0.1">
<path d="M20.1148 97.473C5.78283 91.7508 -10.7583 97.1994 -13.4268 108.57C-14.9612 114.649 -11.9507 121.209 -6.10078 125.873C-3.6745 127.804 -0.768294 129.411 2.5117 130.522C17.907 135.899 34.1828 128.78 35.1369 116.913C34.5664 123.312 28.8854 128.875 20.884 130.624C12.0066 132.67 2.50704 130.071 -3.76337 125.074C-7.9712 121.717 -10.7326 117.279 -10.8615 112.433C-11.3391 100.36 4.66876 92.805 19.8016 98.0615C22.8529 99.0859 25.6065 100.607 27.9222 102.449C32.0074 105.704 34.6948 109.961 35.1146 114.265C34.6782 109.686 31.8363 105.144 27.481 101.669C25.3546 99.9767 22.8668 98.5377 20.1228 97.4711L20.1148 97.473Z" fill="black"/>
</g>
<g opacity="0.1">
<path d="M-18.0923 102.12L-19.1441 108.508C-18.3702 103.803 -15.6318 99.3867 -10.8967 96.0129C0.82296 87.6588 20.3152 88.856 32.6398 98.6759C39.9893 104.532 43.1316 112.13 41.9858 119.086L43.0376 112.697C44.1833 105.742 41.0411 98.1434 33.6916 92.2874C21.367 82.4675 1.87969 81.2733 -9.84498 89.6244C-14.577 92.9932 -17.3154 97.4094 -18.0923 102.12Z" fill="black"/>
</g>
</g>
<g opacity="0.3">
<path d="M414.028 246.186C414.798 230.441 404.378 213.927 390.763 209.295C377.13 204.664 365.467 213.664 364.692 229.409C363.921 245.149 374.337 261.669 387.963 266.301C401.584 270.933 413.253 261.932 414.028 246.186Z" fill="#FFC727"/>
<path d="M397.123 268.572L402.922 265.694C398.651 267.814 393.467 268.172 387.963 266.299C374.336 261.668 363.921 245.148 364.691 229.408C365.151 220.022 369.482 213.033 375.797 209.9L369.997 212.778C363.683 215.912 359.351 222.901 358.892 232.287C358.121 248.026 368.536 264.54 382.163 269.178C387.662 271.051 392.846 270.693 397.123 268.572Z" fill="#FFC727"/>
<g opacity="0.1">
<path d="M371.031 240.28C374.759 255.255 388.844 265.497 399.632 261.02C405.462 258.715 409.028 252.439 409.396 244.966C409.545 241.869 409.152 238.571 408.138 235.261C403.508 219.624 388.222 210.573 378.034 216.731C383.56 213.456 391.394 214.817 397.488 220.289C404.335 226.299 407.774 235.528 407.382 243.536C407.115 248.912 405.126 253.746 401.269 256.682C391.749 264.122 376.266 255.543 371.692 240.19C370.741 237.115 370.366 233.992 370.509 231.036C370.764 225.819 372.649 221.151 375.897 218.296C372.436 221.325 370.409 226.285 370.133 231.85C370.002 234.564 370.287 237.424 371.025 240.274L371.031 240.28Z" fill="black"/>
</g>
<g opacity="0.1">
<path d="M397.124 268.572L402.923 265.694C398.652 267.814 393.468 268.172 387.964 266.299C374.337 261.668 363.922 245.148 364.692 229.408C365.152 220.022 369.483 213.033 375.798 209.9L369.998 212.778C363.684 215.912 359.352 222.901 358.893 232.287C358.122 248.026 368.537 264.54 382.164 269.178C387.663 271.051 392.847 270.693 397.124 268.572Z" fill="black"/>
</g>
</g>
<g clip-path="url(#clip0_3344_2771)">
<path d="M228.967 178.745C225.85 182.169 221.186 183.623 218.548 181.991C215.911 180.36 216.302 176.262 219.42 172.837C222.538 169.413 227.202 167.96 229.838 169.591C232.475 171.223 232.086 175.322 228.967 178.745Z" fill="#FFCC00"/>
<path d="M230.535 170.145L231.969 171.614C233.808 173.497 233.213 177.129 230.404 180.214C227.286 183.638 222.621 185.092 219.984 183.46C219.723 183.298 219.491 183.113 219.29 182.906L217.855 181.436C218.057 181.643 218.289 181.829 218.55 181.99C221.186 183.622 225.851 182.168 228.969 178.745C231.778 175.659 232.373 172.027 230.535 170.145Z" fill="#FFCC00"/>
<g opacity="0.1">
<path d="M229.729 172.177C230.983 174.676 228.597 178.839 224.875 180.621C222.881 181.598 220.914 181.64 219.663 180.866C219.144 180.545 218.749 180.085 218.525 179.493C217.423 176.724 220.328 172.443 224.141 170.979C222.083 171.781 220.09 173.6 219.219 175.519C218.218 177.66 218.668 179.444 220.01 180.274C220.91 180.831 222.213 180.959 223.749 180.475C227.568 179.3 230.605 175.031 229.529 172.307C229.323 171.754 228.949 171.317 228.455 171.012C227.574 170.467 226.313 170.338 224.947 170.713C226.398 170.312 227.745 170.445 228.685 171.025C229.14 171.307 229.5 171.693 229.729 172.176V172.177Z" fill="black"/>
</g>
<g opacity="0.1">
<path d="M230.535 170.145L231.969 171.614C233.808 173.497 233.213 177.129 230.404 180.214C227.286 183.638 222.621 185.092 219.984 183.46C219.723 183.298 219.491 183.113 219.29 182.906L217.855 181.436C218.057 181.643 218.289 181.829 218.55 181.99C221.186 183.622 225.851 182.168 228.969 178.745C231.778 175.659 232.373 172.027 230.535 170.145Z" fill="black"/>
</g>
</g>
<path opacity="0.5" d="M160.234 215.565L146.543 195.674L227.82 170.359L226.465 202.47L160.234 215.565Z" fill="url(#paint1_linear_3344_2771)"/>
<g clip-path="url(#clip1_3344_2771)">
<path d="M216.984 205.983C217.52 201.678 214.957 196.937 211.261 195.392C207.56 193.847 204.129 196.081 203.591 200.386C203.055 204.689 205.617 209.431 209.316 210.976C213.014 212.522 216.446 210.287 216.984 205.983Z" fill="#FFCC00"/>
<path d="M211.821 211.784L213.494 211.111C212.262 211.607 210.811 211.6 209.317 210.976C205.618 209.43 203.056 204.688 203.592 200.385C203.912 197.819 205.261 195.988 207.083 195.256L205.409 195.929C203.587 196.661 202.238 198.492 201.919 201.058C201.382 205.361 203.944 210.101 207.643 211.648C209.136 212.273 210.586 212.279 211.821 211.784Z" fill="#FFCC00"/>
<g opacity="0.1">
<path d="M205.135 203.495C205.867 207.679 209.579 210.773 212.674 209.762C214.344 209.247 215.465 207.597 215.72 205.554C215.825 204.707 215.783 203.795 215.568 202.866C214.599 198.482 210.528 195.691 207.566 197.175C209.172 196.388 211.325 196.919 212.909 198.544C214.693 200.33 215.462 202.932 215.189 205.121C215.005 206.591 214.352 207.877 213.218 208.605C210.415 210.454 206.28 207.789 205.321 203.484C205.119 202.621 205.078 201.757 205.178 200.949C205.356 199.522 205.976 198.28 206.939 197.562C205.913 198.323 205.248 199.643 205.057 201.164C204.965 201.906 204.986 202.697 205.133 203.494L205.135 203.495Z" fill="black"/>
</g>
<g opacity="0.1">
<path d="M211.821 211.786L213.494 211.113C212.262 211.609 210.811 211.602 209.317 210.977C205.618 209.432 203.056 204.69 203.592 200.387C203.912 197.821 205.261 195.99 207.083 195.258L205.409 195.931C203.587 196.663 202.238 198.494 201.919 201.06C201.382 205.363 203.944 210.103 207.643 211.65C209.136 212.275 210.586 212.281 211.821 211.786Z" fill="black"/>
</g>
</g>
<path d="M201.72 204.863L157.576 213.591C156.87 213.731 156.411 214.416 156.551 215.122L163.593 250.74C164.808 256.885 170.916 260.903 177.164 259.668L227.591 249.697C233.84 248.462 237.959 242.422 236.744 236.277L229.701 200.658C229.562 199.952 228.877 199.493 228.171 199.633L201.72 204.863Z" fill="#FF6381"/>
<path d="M199.143 205.37L186.603 207.85L196.107 255.92L208.647 253.441L199.143 205.37Z" fill="#111B39"/>
<path d="M235.44 229.685L232.961 217.145L159.81 231.608L162.29 244.148L235.44 229.685Z" fill="#111B39"/>
<ellipse cx="207.143" cy="178.202" rx="2.39357" ry="2.39357" transform="rotate(-11.1843 207.143 178.202)" fill="#FF6381"/>
<ellipse cx="196.669" cy="186.668" rx="1.42005" ry="1.42005" transform="rotate(-11.1843 196.669 186.668)" fill="#111B39"/>
<ellipse cx="192.611" cy="198.231" rx="1.36776" ry="1.36776" transform="rotate(-11.1843 192.611 198.231)" fill="#FF6381"/>
<ellipse cx="178.607" cy="194.608" rx="1.36776" ry="1.36776" transform="rotate(-11.1843 178.607 194.608)" fill="#FF6381"/>
<path d="M168.61 200.925C168.663 200.721 168.946 200.705 169.022 200.901L169.986 203.37C170.02 203.458 170.107 203.514 170.201 203.508L172.848 203.355C173.058 203.343 173.161 203.607 172.998 203.74L170.947 205.42C170.874 205.48 170.848 205.58 170.882 205.667L171.846 208.137C171.923 208.333 171.704 208.513 171.526 208.399L169.295 206.967C169.216 206.917 169.113 206.923 169.04 206.982L166.989 208.662C166.826 208.795 166.588 208.642 166.641 208.439L167.313 205.874C167.337 205.783 167.299 205.687 167.22 205.636L164.989 204.205C164.811 204.091 164.883 203.817 165.093 203.805L167.74 203.651C167.834 203.646 167.914 203.58 167.938 203.489L168.61 200.925Z" fill="#111B39"/>
<path fill-rule="evenodd" clip-rule="evenodd" d="M168.66 174.967L154.106 184.533C148.549 188.185 146.861 195.524 150.355 200.839L152.37 203.905C152.765 204.507 153.573 204.674 154.174 204.278L176.375 189.687L176.375 189.687L190.74 180.245L190.74 180.246L214.309 164.754C214.91 164.359 215.077 163.551 214.682 162.95L212.667 159.883C209.173 154.568 201.767 153.207 196.21 156.859L196.209 156.86L183.026 165.525L183.026 165.524L168.66 174.967L168.66 174.967Z" fill="#FF6381"/>
<path d="M180.499 167.184L169.817 174.205L178.908 188.036L189.59 181.015L180.499 167.184Z" fill="#111B39"/>
<path d="M168.011 164.086L151.492 165.053C148.678 165.218 147.095 168.364 148.642 170.718L153.223 177.687C154.359 179.416 156.683 179.895 158.415 178.757L170.284 170.955C173.491 168.848 171.841 163.861 168.013 164.085L168.011 164.086Z" fill="#111B39"/>
<path d="M172.343 161.239L179.784 146.457C181.052 143.94 184.567 143.734 186.114 146.088L190.695 153.057C191.832 154.786 191.35 157.109 189.618 158.247L177.749 166.049C174.542 168.156 170.619 164.665 172.343 161.239Z" fill="#111B39"/>
<path d="M217.229 148.874C216.835 148.539 216.637 148.144 216.64 147.69C216.644 147.235 216.871 146.801 217.333 146.385L222.51 141.799C223.06 141.318 223.718 141.065 224.484 141.036C225.25 141.006 225.908 141.226 226.459 141.693L233.206 147.422C233.757 147.89 234.08 148.504 234.175 149.264C234.27 150.024 234.128 150.715 233.742 151.336L230.042 157.177C229.709 157.696 229.315 157.994 228.867 158.071C228.419 158.149 227.998 158.017 227.603 157.682C227.365 157.48 227.194 157.269 227.095 157.047C226.995 156.826 226.934 156.614 226.92 156.403L226.675 153.408L221.598 149.097L218.602 149.341C218.389 149.358 218.168 149.336 217.938 149.273C217.706 149.208 217.468 149.076 217.229 148.874ZM229.021 152.451C229.188 152.593 229.387 152.653 229.615 152.634C229.843 152.616 230.032 152.521 230.172 152.357C230.311 152.192 230.374 151.991 230.355 151.763C230.337 151.534 230.242 151.346 230.078 151.206C229.913 151.066 229.712 151.004 229.484 151.022C229.255 151.041 229.067 151.135 228.927 151.3C228.787 151.464 228.725 151.666 228.743 151.894C228.762 152.122 228.856 152.311 229.021 152.451ZM229.417 149.3C229.584 149.442 229.783 149.503 230.011 149.484C230.239 149.465 230.428 149.371 230.568 149.206C230.707 149.042 230.77 148.84 230.751 148.612C230.733 148.384 230.638 148.195 230.474 148.056C230.309 147.916 230.108 147.853 229.88 147.872C229.651 147.891 229.463 147.985 229.323 148.15C229.183 148.314 229.121 148.516 229.139 148.744C229.158 148.972 229.252 149.161 229.417 149.3ZM222.857 147.08L223.636 147.741L224.627 146.573L225.795 147.565L226.456 146.786L225.288 145.795L226.28 144.627L225.501 143.966L224.51 145.134L223.342 144.142L222.681 144.921L223.849 145.912L222.857 147.08Z" fill="#111B39"/>
<path d="M158.027 143.122C158.197 142.999 158.426 143.166 158.361 143.366L157.187 146.947C157.158 147.037 157.19 147.135 157.266 147.19L160.309 149.413C160.479 149.537 160.391 149.806 160.18 149.806L156.412 149.797C156.318 149.796 156.234 149.857 156.205 149.946L155.032 153.527C154.966 153.728 154.683 153.727 154.618 153.526L153.462 149.94C153.433 149.85 153.35 149.789 153.256 149.789L149.488 149.78C149.277 149.779 149.19 149.51 149.361 149.386L152.415 147.179C152.491 147.123 152.523 147.025 152.494 146.936L151.339 143.349C151.274 143.149 151.504 142.983 151.674 143.107L154.717 145.329C154.793 145.385 154.896 145.385 154.973 145.33L158.027 143.122Z" fill="#111B39"/>
<defs>
<radialGradient id="paint0_radial_3344_2771" cx="0" cy="0" r="1" gradientUnits="userSpaceOnUse" gradientTransform="translate(196.994 225.085) rotate(88.6718) scale(215.973 193.271)">
<stop stop-color="#AEAEB2"/>
<stop offset="1" stop-color="#EBEBF5" stop-opacity="0.16"/>
</radialGradient>
<linearGradient id="paint1_linear_3344_2771" x1="208.666" y1="208.557" x2="206.045" y2="187.505" gradientUnits="userSpaceOnUse">
<stop stop-color="#FF6381"/>
<stop offset="1" stop-color="#FFFDFE" stop-opacity="0"/>
</linearGradient>
<clipPath id="clip0_3344_2771">
<rect width="16.2222" height="15.2083" fill="white" transform="translate(216.802 168.922)"/>
</clipPath>
<clipPath id="clip1_3344_2771">
<rect width="15.2083" height="17.2361" fill="white" transform="translate(201.848 192.875)"/>
</clipPath>
</defs>
</svg>
