<svg width="83" height="24" viewBox="0 0 83 24" fill="none" xmlns="http://www.w3.org/2000/svg">
<g clip-path="url(#clip0_928_4473)">
<path d="M37.3449 19.0104C37.6834 19.0185 38.0173 18.9311 38.3086 18.7583C38.6105 18.549 38.8182 18.2292 38.8869 17.868L40.2111 12.8447C40.2217 12.8031 40.2386 12.7635 40.2613 12.7271C40.2866 12.7124 40.316 12.7065 40.3451 12.7102C40.3768 12.7075 40.4086 12.7134 40.4373 12.7271C40.4663 12.7608 40.4865 12.8012 40.4959 12.8447L41.8201 17.868C41.8887 18.2292 42.0964 18.549 42.3984 18.7583C42.6897 18.9311 43.0236 19.0185 43.3621 19.0104H44.3174C44.6885 19.0307 45.057 18.9368 45.3734 18.7415C45.5196 18.6163 45.6383 18.462 45.7219 18.2886C45.8056 18.1151 45.8524 17.9261 45.8594 17.7335L47.4182 6.72953V6.69585C47.423 6.66144 47.4176 6.62639 47.4027 6.59502C47.3878 6.56365 47.3641 6.53732 47.3344 6.5193C47.2771 6.49104 47.2139 6.47671 47.15 6.47747H44.8707C44.7143 6.47747 44.6249 6.58385 44.6025 6.7966L43.6472 15.8016C43.636 15.9465 43.6024 16.0189 43.5465 16.0189C43.5019 16.0189 43.4627 15.9465 43.4291 15.8016L42.2221 11.1803C42.2221 11.1803 41.9931 10.6398 41.803 10.5333C41.6136 10.4272 41.3999 10.3723 41.1829 10.3739H39.5235C39.3065 10.3723 39.0928 10.4272 38.9034 10.5333C38.7942 10.608 38.701 10.7036 38.629 10.8147C38.5571 10.9257 38.5079 11.05 38.4844 11.1803L37.2776 15.8003C37.2441 15.9451 37.205 16.0176 37.1602 16.0176C37.1043 16.0176 37.0707 15.9451 37.0595 15.8003L36.1045 6.7966C36.0821 6.58385 35.9926 6.47747 35.8362 6.47747H33.5578C33.4939 6.47671 33.4307 6.49104 33.3733 6.5193C33.3437 6.53732 33.3199 6.56365 33.3051 6.59502C33.2902 6.62639 33.2848 6.66144 33.2895 6.69585V6.72953L34.8484 17.7335C34.8554 17.9261 34.9022 18.1151 34.9858 18.2886C35.0695 18.462 35.1882 18.6163 35.3344 18.7415C35.6508 18.9368 36.0192 19.0307 36.3904 19.0104H37.3457H37.3449ZM51.2392 19.1111C51.6807 19.121 52.1204 19.0528 52.5382 18.9096C52.9055 18.773 53.2523 18.5865 53.5689 18.3552V18.6241C53.5688 18.6681 53.5777 18.7117 53.595 18.7522C53.6123 18.7926 53.6377 18.8291 53.6696 18.8594C53.6997 18.8913 53.7361 18.9167 53.7764 18.9341C53.8168 18.9514 53.8603 18.9603 53.9042 18.9601H55.7814C55.8254 18.9603 55.8688 18.9514 55.9092 18.9341C55.9495 18.9167 55.9859 18.8913 56.0161 18.8594C56.048 18.8291 56.0734 18.7926 56.0907 18.7522C56.108 18.7117 56.1168 18.6681 56.1167 18.6241V12.6263C56.1311 12.0894 56.037 11.5552 55.84 11.0556C55.6706 10.6441 55.403 10.2804 55.0608 9.99637C54.6983 9.70844 54.2781 9.50214 53.8288 9.39151C53.2946 9.25687 52.7453 9.19197 52.1945 9.1984C51.6477 9.19755 51.1015 9.23686 50.5603 9.316C50.0296 9.3944 49.6078 9.47281 49.295 9.55122C49.2057 9.5626 49.1238 9.60665 49.065 9.6749C49.0062 9.74315 48.9747 9.83077 48.9765 9.92088V11.2816C48.9718 11.3246 48.9769 11.3681 48.9914 11.4088C49.006 11.4496 49.0295 11.4865 49.0603 11.5168C49.1228 11.5636 49.1994 11.5873 49.2773 11.5839H49.3612L49.864 11.5418C50.0651 11.5251 50.2911 11.5111 50.5421 11.4997C50.7931 11.4883 51.0553 11.4799 51.3287 11.4744C51.6025 11.4688 51.8738 11.466 52.1425 11.466C52.4643 11.4483 52.7845 11.5237 53.0647 11.6833C53.2882 11.8282 53.3999 12.1418 53.3999 12.6241V13.229H52.4948C51.0534 13.229 50.0059 13.4558 49.3522 13.9094C48.6985 14.363 48.3717 15.0825 48.3717 16.0681V16.2194C48.3577 16.6905 48.4408 17.1594 48.6158 17.5969C48.7585 17.9402 48.9795 18.2452 49.2611 18.4875C49.5278 18.7108 49.8394 18.8741 50.1746 18.9664C50.5211 19.063 50.8792 19.1117 51.239 19.1111H51.2392ZM52.0774 17.0616C51.8035 17.079 51.5297 17.027 51.2813 16.9103C51.108 16.8095 51.0214 16.5799 51.0214 16.2215V16.0703C51.0081 15.904 51.0279 15.7367 51.0796 15.5782C51.1314 15.4197 51.2142 15.273 51.323 15.1468C51.5241 14.9453 51.9152 14.8445 52.4962 14.8445H53.4515V16.6914C53.2435 16.795 53.0277 16.882 52.8062 16.9519C52.5703 17.0259 52.3243 17.0629 52.0771 17.0616H52.0774ZM60.5247 18.9601C60.5681 18.9604 60.6111 18.9508 60.6503 18.932C60.6895 18.9132 60.7239 18.8856 60.7509 18.8515C60.8104 18.784 60.8432 18.6971 60.8431 18.607V6.41012C60.844 6.32271 60.8109 6.23836 60.7509 6.1749C60.7227 6.14269 60.6879 6.11699 60.6488 6.09959C60.6098 6.08219 60.5674 6.07351 60.5247 6.07414H58.4798C58.3884 6.07449 58.3007 6.11065 58.2356 6.1749C58.2017 6.20398 58.1745 6.24006 58.1557 6.28065C58.137 6.32124 58.1273 6.3654 58.1271 6.41012V18.607C58.1276 18.653 58.1375 18.6984 58.1562 18.7405C58.1748 18.7825 58.2019 18.8203 58.2356 18.8515C58.2668 18.8853 58.3045 18.9124 58.3465 18.9311C58.3885 18.9498 58.4338 18.9596 58.4798 18.9601H60.5247ZM65.251 18.9601C65.2945 18.9604 65.3375 18.9508 65.3767 18.932C65.4159 18.9132 65.4503 18.8856 65.4773 18.8515C65.5368 18.784 65.5696 18.6971 65.5695 18.607V6.41012C65.5704 6.32271 65.5373 6.23836 65.4773 6.1749C65.4491 6.14269 65.4143 6.11699 65.3752 6.09959C65.3362 6.08219 65.2938 6.07351 65.251 6.07414H63.2067C63.1153 6.07449 63.0277 6.11065 62.9626 6.1749C62.9286 6.20398 62.9014 6.24006 62.8827 6.28065C62.864 6.32124 62.8542 6.3654 62.8541 6.41012V18.607C62.8546 18.653 62.8645 18.6984 62.8831 18.7405C62.9018 18.7825 62.9288 18.8203 62.9626 18.8515C62.9937 18.8853 63.0314 18.9124 63.0734 18.9311C63.1154 18.9498 63.1608 18.9596 63.2067 18.9601H65.2516H65.251ZM71.5363 19.1114C72.1579 19.1174 72.7793 19.0837 73.3967 19.0106C73.9272 18.9403 74.4532 18.8394 74.9721 18.7083C75.0823 18.6945 75.1836 18.6407 75.2569 18.5571C75.3076 18.4648 75.3309 18.3599 75.3239 18.2548V16.9782C75.3239 16.799 75.2177 16.7093 75.0054 16.7093H74.9553C74.7876 16.7206 74.5753 16.7374 74.3184 16.7599C74.0614 16.7823 73.7849 16.7991 73.4887 16.8101L72.5919 16.8438C72.2903 16.8552 72.0054 16.8608 71.7372 16.8606C71.453 16.8704 71.1701 16.8188 70.9075 16.7093C70.7024 16.6183 70.5215 16.4801 70.3797 16.306C70.2432 16.133 70.146 15.9324 70.0949 15.718C70.0388 15.4927 70.0107 15.2614 70.0111 15.0292V14.9955H75.3583C75.5934 14.9955 75.7109 14.8611 75.7109 14.5922V13.6177C75.717 13.0197 75.6293 12.4244 75.4511 11.8536C75.2911 11.3395 75.0257 10.8646 74.6718 10.4592C74.3149 10.0599 73.8742 9.74452 73.3812 9.53573C72.8074 9.30026 72.1912 9.18588 71.5712 9.19976C70.9592 9.1894 70.3508 9.29481 69.7778 9.51047C69.2745 9.70328 68.8197 10.0044 68.4455 10.3927C68.0713 10.7918 67.7882 11.2676 67.6157 11.7871C67.4193 12.3772 67.323 12.9962 67.3309 13.6182V14.7943C67.3107 15.4929 67.4362 16.1881 67.6995 16.8354C67.9161 17.3498 68.2489 17.8069 68.6717 18.1708C69.0687 18.5041 69.5312 18.7503 70.0292 18.8933C70.5187 19.0367 71.026 19.1101 71.536 19.1111L71.5363 19.1114ZM73.0615 13.3154H70.0108V13.248C69.9741 12.7474 70.1234 12.2508 70.4299 11.8536C70.5709 11.6973 70.7447 11.5741 70.9388 11.4928C71.133 11.4115 71.3426 11.374 71.5528 11.3832C71.7599 11.3727 71.9667 11.4088 72.1581 11.4886C72.3495 11.5685 72.5206 11.6903 72.6589 11.8449C72.9571 12.2489 73.1 12.7469 73.0612 13.2477L73.0615 13.3154ZM81.3574 19.1111C81.5757 19.1125 81.794 19.1013 82.0111 19.0774C82.2009 19.055 82.4244 19.0214 82.6816 18.9767C82.8939 18.943 83 18.831 83 18.6407V17.3302C83 17.1399 82.8825 17.0447 82.6474 17.0445H81.8261C81.5691 17.0445 81.4127 16.9969 81.3568 16.9016C81.2832 16.6945 81.2546 16.474 81.273 16.2549V11.3661H82.6474C82.6913 11.3662 82.7348 11.3573 82.7751 11.34C82.8155 11.3227 82.8519 11.2973 82.882 11.2653C82.9139 11.235 82.9393 11.1986 82.9566 11.1581C82.9739 11.1177 82.9828 11.0741 82.9827 11.0301V9.66936C82.9828 9.62535 82.974 9.58177 82.9567 9.54132C82.9394 9.50087 82.914 9.46439 82.882 9.43415C82.8519 9.4022 82.8155 9.37678 82.7751 9.35945C82.7348 9.34212 82.6913 9.33325 82.6474 9.33339H81.273V7.55248C81.2752 7.51349 81.2688 7.47449 81.2543 7.43823C81.2398 7.40197 81.2176 7.36931 81.1892 7.34253C81.129 7.29078 81.0515 7.26381 80.9722 7.26704H80.922L78.8771 7.62012C78.791 7.64089 78.7108 7.68111 78.6425 7.73772C78.6103 7.76382 78.5844 7.79698 78.567 7.83465C78.5495 7.87231 78.541 7.91349 78.5419 7.955V9.33339H77.2011C77.1552 9.33386 77.1098 9.34373 77.0679 9.36242C77.0259 9.3811 76.9882 9.40821 76.957 9.44204C76.9233 9.47324 76.8962 9.51101 76.8776 9.55304C76.8589 9.59507 76.849 9.64048 76.8485 9.68647V10.7952C76.8482 10.8387 76.8578 10.8818 76.8766 10.9211C76.8954 10.9604 76.9229 10.9949 76.957 11.0219C77.0275 11.0824 77.1111 11.1256 77.2011 11.148L78.5419 11.3653V16.2373C78.5281 16.7284 78.5903 17.2186 78.7263 17.6906C78.8236 18.0248 79.0088 18.3266 79.2626 18.5644C79.5146 18.78 79.8175 18.9275 80.1425 18.9927C80.542 19.0761 80.9493 19.1158 81.3574 19.1111Z" fill="white"/>
<path d="M10.0793 13.0745L11.9213 7.45987L13.7961 13.0745H10.0793ZM16.364 12.4291H17.3133C17.3961 12.4292 17.4781 12.4129 17.5546 12.3812C17.6311 12.3494 17.7006 12.303 17.7591 12.2443C17.8177 12.1857 17.8641 12.1161 17.8958 12.0395C17.9275 11.9629 17.9437 11.8808 17.9437 11.7979V11.7862C17.9415 11.6142 17.8716 11.45 17.7493 11.3292C17.627 11.2084 17.4621 11.1408 17.2903 11.1409H15.8928L15.6414 10.4891H17.2713C17.4422 10.4891 17.6061 10.4211 17.727 10.3001C17.8479 10.179 17.9158 10.0149 17.9158 9.84374C17.9158 9.67258 17.8479 9.50844 17.727 9.38742C17.6061 9.2664 17.4422 9.19841 17.2713 9.19841H15.1703L14.0218 6.06464C13.8529 5.61658 13.5716 5.21961 13.2051 4.91195C12.8449 4.61498 12.388 4.46151 11.9219 4.48092C11.4546 4.46613 10.9975 4.619 10.6329 4.91195C10.2686 5.22168 9.9878 5.61802 9.81621 6.06464L8.63603 9.21524H6.53445C6.36794 9.21539 6.20829 9.28173 6.0906 9.39968C5.97291 9.51763 5.9068 9.67754 5.9068 9.84428V9.84998C5.90857 10.0191 5.97654 10.1808 6.09609 10.3002C6.21564 10.4197 6.37723 10.4874 6.54612 10.4888L8.1516 10.501L7.90748 11.1355H6.47207C6.30591 11.1356 6.14658 11.2017 6.0291 11.3193C5.91161 11.437 5.84557 11.5965 5.8455 11.7629C5.84561 11.9304 5.91127 12.0912 6.02841 12.2108C6.14555 12.3303 6.30482 12.3992 6.47207 12.4025L7.42521 12.4213L5.86232 16.6118C5.76405 16.849 5.70778 17.1014 5.69604 17.3579C5.71304 17.715 5.86879 18.0513 6.13003 18.295C6.41575 18.5434 6.78235 18.6787 7.16075 18.6752C7.4788 18.6918 7.79294 18.5989 8.05089 18.4118C8.30884 18.2248 8.49505 17.9549 8.57853 17.6472L9.17852 15.8562H14.7119L15.3118 17.6885C15.4055 17.9864 15.5959 18.2445 15.8529 18.4216C16.1098 18.5988 16.4185 18.6849 16.7299 18.6662C16.9693 18.6716 17.2055 18.6113 17.4131 18.4919C17.5934 18.3582 17.7534 18.1991 17.8881 18.0196C18.0088 17.8141 18.0693 17.5788 18.0628 17.3405C18.0253 17.0929 17.9669 16.849 17.8881 16.6113L16.364 12.4291Z" fill="#FF6381"/>
<path d="M11.9837 2.76761e-08C9.61348 -0.000161129 7.29642 0.70349 5.32555 2.02197C3.35468 3.34045 1.81853 5.21454 0.911369 7.40724C0.00420275 9.59993 -0.233237 12.0128 0.229077 14.3406C0.691391 16.6684 1.83269 18.8067 3.50865 20.485C5.18461 22.1633 7.31996 23.3063 9.64465 23.7694C11.9693 24.2325 14.379 23.9949 16.5688 23.0866C18.7586 22.1784 20.6303 20.6403 21.9472 18.6669C23.2641 16.6935 23.9669 14.3734 23.9669 12C23.9669 8.81754 22.7044 5.76542 20.4572 3.51501C18.2099 1.26459 15.1619 0.00021612 11.9837 2.76761e-08ZM11.9837 23.1531C9.78079 23.1531 7.62731 22.499 5.79563 21.2735C3.96395 20.048 2.53633 18.3061 1.6933 16.2681C0.850274 14.2302 0.629699 11.9876 1.05947 9.82413C1.48924 7.66063 2.55006 5.67333 4.10778 4.11354C5.66549 2.55375 7.65014 1.49151 9.81076 1.06117C11.9714 0.630819 14.2109 0.851688 16.2462 1.69584C18.2814 2.54 20.021 3.96952 21.2449 5.80365C22.4688 7.63777 23.122 9.79412 23.122 12C23.1219 14.958 21.9484 17.7948 19.8596 19.8864C17.7708 21.978 14.9378 23.1531 11.9837 23.1531Z" fill="#FF6381"/>
</g>
<defs>
<clipPath id="clip0_928_4473">
<rect width="83" height="24" fill="white"/>
</clipPath>
</defs>
</svg>
