<svg width="16" height="16" viewBox="0 0 16 16" fill="none" xmlns="http://www.w3.org/2000/svg">
<path d="M3.90955 0C4.03138 0.0227937 4.15399 0.0392971 4.27424 0.0699508C5.31931 0.32761 6.27796 0.856279 7.05352 1.60264C7.14279 1.6907 7.22188 1.78851 7.28931 1.89424C7.41006 2.06071 7.46212 2.26725 7.43476 2.47108C7.4074 2.6749 7.3027 2.8604 7.14232 2.98913C6.89428 3.19737 6.59998 3.34317 6.28403 3.41434C5.26712 3.72122 4.18463 3.73756 3.15892 3.4615C2.88078 3.398 2.62281 3.26624 2.40833 3.07811C2.19385 2.88998 2.02963 2.6514 1.93042 2.38391C1.80841 1.9981 1.81265 1.58341 1.94256 1.20018C2.07247 0.816957 2.32128 0.485172 2.65275 0.253088C2.88829 0.148922 3.13198 0.064276 3.38137 0H3.90955ZM5.98535 2.26287C5.96661 2.23693 5.94528 2.21296 5.92169 2.19134C5.54677 1.96104 5.18208 1.70796 4.79144 1.50753C4.38031 1.27755 3.90967 1.17598 3.44028 1.21593C3.37139 1.21675 3.30442 1.23856 3.24824 1.27844C3.19207 1.31832 3.1494 1.37439 3.12591 1.43915C2.9412 1.96891 3.02609 2.15047 3.50476 2.31474C3.53882 2.32627 3.57341 2.33675 3.60852 2.34618C4.18768 2.47668 4.78708 2.49004 5.37149 2.38548C5.57349 2.35718 5.76763 2.30767 5.98535 2.26287Z" fill="black"/>
<path d="M11.999 0C12.287 0.0409843 12.5638 0.139052 12.8133 0.288456C13.0151 0.432607 13.1832 0.618754 13.3061 0.834084C13.429 1.04941 13.5039 1.28881 13.5254 1.53582C13.6072 1.96134 13.5183 2.40194 13.278 2.76251C13.0377 3.12308 12.6653 3.3747 12.2411 3.46308C11.4713 3.6766 10.6636 3.71554 9.87685 3.57704C9.41609 3.5277 8.96755 3.39787 8.55167 3.19348C8.42596 3.13684 8.31266 3.05597 8.21825 2.95549C8.12384 2.85501 8.05019 2.7369 8.00149 2.60792C7.95366 2.44174 7.95427 2.26534 8.00329 2.09951C8.0523 1.93367 8.14766 1.78528 8.27815 1.6718C8.6885 1.24216 9.17042 0.887109 9.70237 0.622505C10.2422 0.306992 10.8393 0.101807 11.4591 0.0188594C11.4741 0.0147078 11.4884 0.00835487 11.5015 0H11.999ZM9.4367 2.22121V2.28095C9.72123 2.32811 10.0042 2.38941 10.2903 2.41928C10.8171 2.49706 11.3544 2.46278 11.867 2.31867C12.348 2.16147 12.4353 1.9752 12.2836 1.49496C12.2636 1.41643 12.2186 1.34654 12.1553 1.29591C12.0921 1.24527 12.014 1.21664 11.933 1.21435C11.5895 1.18875 11.2447 1.24254 10.9254 1.37155C10.3872 1.57396 9.88468 1.86077 9.4367 2.22121Z" fill="black"/>
<path d="M7.05986 12.4705C7.05986 13.5426 7.05986 14.6147 7.05986 15.6868C7.05986 15.9509 7.01823 15.9917 6.75178 15.9917H1.70808C1.59192 16.0063 1.47394 15.9941 1.3632 15.9562C1.25246 15.9182 1.15187 15.8554 1.06913 15.7725C0.986383 15.6897 0.923661 15.5891 0.885774 15.4783C0.847887 15.3675 0.835869 15.2496 0.850561 15.1334C0.850561 13.3325 0.850561 11.5317 0.850561 9.7313C0.837087 9.61644 0.84968 9.50001 0.887453 9.39069C0.925225 9.28138 0.987179 9.182 1.0687 9.09995C1.15021 9.01791 1.24919 8.95532 1.35826 8.91684C1.46733 8.87836 1.58368 8.86499 1.69863 8.87772C3.36441 8.87772 5.02992 8.87772 6.69517 8.87772C6.97813 8.87772 7.0591 8.95632 7.0591 9.2377C7.06014 10.3156 7.06039 11.3932 7.05986 12.4705Z" fill="black"/>
<path d="M8.31738 12.4728C8.31738 11.4007 8.31738 10.3286 8.31738 9.2565C8.31738 8.95311 8.39126 8.87844 8.69543 8.87844C10.3554 8.87844 12.0157 8.87844 13.6763 8.87844C13.7912 8.86539 13.9076 8.87845 14.0167 8.91662C14.1259 8.9548 14.2251 9.01712 14.3068 9.09893C14.3885 9.18075 14.4508 9.27996 14.4889 9.38917C14.5269 9.49838 14.5399 9.61477 14.5267 9.72967C14.5267 11.5359 14.5267 13.3418 14.5267 15.1475C14.54 15.2613 14.5275 15.3767 14.4901 15.485C14.4527 15.5933 14.3914 15.6919 14.3108 15.7733C14.2302 15.8548 14.1323 15.917 14.0244 15.9555C13.9164 15.994 13.8012 16.0077 13.6873 15.9956H8.61292C8.36219 15.9956 8.31738 15.95 8.31738 15.6922C8.31738 14.618 8.31738 13.5449 8.31738 12.4728Z" fill="black"/>
<path d="M3.75471 4.21042H6.70457C6.99067 4.21042 7.05979 4.28116 7.06058 4.57119C7.06058 5.62179 7.06058 6.67267 7.06058 7.7238C7.06058 7.9761 7.00087 8.03819 6.74621 8.03819C4.77495 8.03819 2.8034 8.03819 0.83161 8.03819C0.71931 8.04933 0.605969 8.03522 0.499828 7.99688C0.393687 7.95855 0.297446 7.89697 0.218178 7.81665C0.13891 7.73632 0.0786116 7.63929 0.041685 7.53265C0.00475833 7.42602 -0.00787547 7.31247 0.00474568 7.20033C0.00474568 6.48246 0.00474568 5.76458 0.00474568 5.04671C-0.00744903 4.93452 0.00560287 4.82103 0.0429323 4.71454C0.0802617 4.60804 0.14096 4.51124 0.220529 4.43122C0.300098 4.3512 0.396521 4.28998 0.502802 4.25205C0.609084 4.21412 0.722522 4.20043 0.834776 4.21199C1.80836 4.20937 2.78165 4.20884 3.75471 4.21042Z" fill="black"/>
<path d="M11.6287 4.21036H14.5165C14.6325 4.19542 14.7503 4.20731 14.861 4.2451C14.9717 4.2829 15.0722 4.34559 15.1548 4.42836C15.2374 4.51113 15.3 4.61176 15.3376 4.7225C15.3751 4.83324 15.3868 4.95113 15.3717 5.06709C15.3717 5.77449 15.3717 6.48188 15.3717 7.18927C15.3855 7.30408 15.3731 7.42054 15.3353 7.52983C15.2974 7.63911 15.2352 7.73835 15.1533 7.82001C15.0714 7.90167 14.972 7.96361 14.8626 8.00113C14.7533 8.03865 14.6368 8.05077 14.522 8.03657C12.5832 8.03657 10.6426 8.03657 8.70016 8.03657C8.64769 8.03736 8.5952 8.03526 8.54295 8.03028C8.38575 8.01299 8.31738 7.94225 8.31738 7.78741C8.31738 6.68702 8.31738 5.58401 8.31738 4.47839C8.31738 4.28267 8.40227 4.21036 8.61527 4.20958L11.6287 4.21036Z" fill="black"/>
</svg>
