<svg width="16" height="16" viewBox="0 0 16 16" fill="none" xmlns="http://www.w3.org/2000/svg">
<g id="Appcoins logo">
<circle id="Ellipse 4" cx="8" cy="8" r="8" fill="#111B39"/>
<path id="Vector" fill-rule="evenodd" clip-rule="evenodd" d="M7.059 8.69984L8.00017 5.6316L9.01664 8.69984H7.059ZM10.4096 8.34219H10.9084C10.995 8.33737 11.0764 8.29956 11.1359 8.23654C11.1954 8.17351 11.2285 8.09006 11.2284 8.00337C11.2284 7.95683 11.2191 7.91077 11.201 7.86789C11.1829 7.82502 11.1564 7.7862 11.1231 7.75374C11.0898 7.72128 11.0503 7.69583 11.0069 7.67889C10.9636 7.66195 10.9173 7.65388 10.8708 7.65513H10.1366L10.0049 7.29749H10.8237C10.9074 7.28377 10.9835 7.24075 11.0384 7.17609C11.0934 7.11144 11.1235 7.02937 11.1235 6.94454C11.1235 6.85971 11.0934 6.77765 11.0384 6.713C10.9835 6.64834 10.9074 6.60532 10.8237 6.5916H9.75076L9.139 4.86925C9.05334 4.62429 8.90389 4.40661 8.70606 4.23866C8.61056 4.15353 8.49872 4.08875 8.37735 4.0483C8.25599 4.00784 8.12765 3.99255 8.00017 4.00337C7.75695 4.00236 7.52087 4.08549 7.33194 4.23866C7.13904 4.41101 6.99054 4.62732 6.899 4.86925L6.26841 6.5916H5.17664C5.13134 6.59159 5.0865 6.60065 5.04477 6.61826C5.00304 6.63588 4.96526 6.66168 4.93367 6.69415C4.90208 6.72661 4.87732 6.76508 4.86086 6.80728C4.8444 6.84948 4.83656 6.89456 4.83782 6.93984C4.84007 7.02988 4.87621 7.11577 4.93902 7.18032C5.00183 7.24488 5.08669 7.28336 5.17664 7.28807H6.0237L5.89194 7.63631H5.17664C5.12589 7.62896 5.07414 7.63323 5.02528 7.64879C4.97642 7.66435 4.93173 7.6908 4.89457 7.72614C4.85742 7.76148 4.82877 7.80479 4.81079 7.85282C4.79281 7.90084 4.78596 7.95232 4.79076 8.00337C4.79305 8.05084 4.80502 8.09735 4.82596 8.14002C4.8469 8.18269 4.87635 8.22062 4.9125 8.25148C4.94865 8.28234 4.99073 8.30548 5.03616 8.31946C5.08159 8.33344 5.1294 8.33797 5.17664 8.33278H5.67547L4.79076 10.6387C4.74125 10.7682 4.71266 10.9048 4.70605 11.0434C4.71381 11.24 4.79827 11.4259 4.94135 11.561C5.09023 11.6972 5.28552 11.7712 5.48723 11.7681C5.65822 11.7735 5.82595 11.7205 5.96281 11.6179C6.09967 11.5152 6.19749 11.369 6.24017 11.2034L6.56017 10.2622H9.50606L9.82605 11.2598C9.87292 11.4228 9.97406 11.5648 10.1127 11.6624C10.2514 11.76 10.4192 11.8072 10.5884 11.7963C10.714 11.7987 10.8379 11.7661 10.9461 11.7022C11.0421 11.6297 11.1277 11.5441 11.2002 11.4481C11.2676 11.3344 11.3003 11.2036 11.2943 11.0716C11.2751 10.9372 11.2436 10.8049 11.2002 10.6763L10.3908 8.37984L10.4096 8.34219Z" fill="white"/>
<path id="Vector_2" fill-rule="evenodd" clip-rule="evenodd" d="M8.00023 1.412C6.6972 1.412 5.42344 1.79839 4.34001 2.52232C3.25658 3.24624 2.41215 4.27518 1.9135 5.47902C1.41485 6.68287 1.28438 8.00754 1.53859 9.28553C1.7928 10.5635 2.42027 11.7374 3.34165 12.6588C4.26303 13.5802 5.43694 14.2077 6.71493 14.4619C7.99292 14.7161 9.3176 14.5856 10.5214 14.087C11.7253 13.5883 12.7542 12.7439 13.4782 11.6605C14.2021 10.577 14.5885 9.30326 14.5885 8.00023C14.5885 6.25292 13.8944 4.57718 12.6588 3.34165C11.4233 2.10611 9.74754 1.412 8.00023 1.412ZM8.00023 15.0591C6.60413 15.0591 5.23938 14.6451 4.07856 13.8694C2.91774 13.0938 2.013 11.9914 1.47873 10.7015C0.944465 9.4117 0.804676 7.9924 1.07704 6.62313C1.34941 5.25385 2.0217 3.99609 3.00889 3.00889C3.99609 2.0217 5.25385 1.34941 6.62313 1.07704C7.9924 0.804676 9.4117 0.944465 10.7015 1.47873C11.9914 2.013 13.0938 2.91774 13.8694 4.07856C14.6451 5.23938 15.0591 6.60413 15.0591 8.00023C15.0591 9.87235 14.3154 11.6678 12.9916 12.9916C11.6678 14.3154 9.87235 15.0591 8.00023 15.0591Z" fill="white"/>
</g>
</svg>
