<svg width="16" height="14" viewBox="0 0 16 14" fill="none" xmlns="http://www.w3.org/2000/svg">
<path d="M2.09677 13.7977C1.40451 13.7977 0.880867 13.6224 0.525858 13.2719C0.175286 12.9213 0 12.4065 0 11.7276V4.8049C0 4.12594 0.175286 3.61118 0.525858 3.2606C0.880867 2.91003 1.40451 2.73475 2.09677 2.73475H12.9002C13.5924 2.73475 14.1138 2.91003 14.4644 3.2606C14.8194 3.61118 14.9969 4.12594 14.9969 4.8049V5.6902H12.4741C11.9283 5.6902 11.4535 5.79892 11.0497 6.01637C10.6458 6.22937 10.333 6.52891 10.1111 6.91498C9.89367 7.29662 9.78495 7.74038 9.78495 8.24627C9.78495 8.74772 9.89367 9.19148 10.1111 9.57755C10.333 9.96363 10.6458 10.2654 11.0497 10.4828C11.4535 10.6958 11.9283 10.8023 12.4741 10.8023H14.9969V11.7276C14.9969 12.4065 14.8194 12.9213 14.4644 13.2719C14.1138 13.6224 13.5924 13.7977 12.9002 13.7977H2.09677ZM12.4142 8.95851C12.6095 8.95851 12.7759 8.88972 12.9135 8.75216C13.0555 8.61015 13.1265 8.44152 13.1265 8.24627C13.1265 8.05101 13.0555 7.8846 12.9135 7.74704C12.7759 7.60947 12.6095 7.54069 12.4142 7.54069C12.219 7.54069 12.0503 7.60947 11.9083 7.74704C11.7708 7.8846 11.702 8.05101 11.702 8.24627C11.702 8.44152 11.7708 8.61015 11.9083 8.75216C12.0503 8.88972 12.219 8.95851 12.4142 8.95851ZM12.4741 9.86378C11.9594 9.86378 11.5378 9.72843 11.2094 9.45774C10.8855 9.18704 10.7235 8.78322 10.7235 8.24627C10.7235 7.70932 10.8855 7.30327 11.2094 7.02814C11.5378 6.75301 11.9594 6.61544 12.4741 6.61544H14.977C15.2743 6.61544 15.5073 6.70641 15.6759 6.88836C15.8445 7.06586 15.9288 7.29218 15.9288 7.56731V8.92522C15.9288 9.19592 15.8445 9.42002 15.6759 9.59752C15.5073 9.77503 15.2743 9.86378 14.977 9.86378H12.4741ZM4.53303 1.78953L9.93804 0.178679C10.4661 0.0144875 10.9321 -0.0365451 11.3359 0.0255816C11.7397 0.0832706 12.0614 0.249681 12.3011 0.524814C12.5407 0.799946 12.6783 1.17936 12.7138 1.66306C12.7138 1.68525 12.7138 1.70744 12.7138 1.72963C12.7138 1.74738 12.7138 1.76735 12.7138 1.78953H4.53303Z" fill="#FF6381"/>
</svg>
