<svg width="19" height="16" viewBox="0 0 19 16" fill="none" xmlns="http://www.w3.org/2000/svg">
<path d="M13.6299 15.9931H5.15455C3.76697 16.062 2.4064 15.6119 1.36644 14.74C0.90232 14.2757 0.542509 13.7271 0.308755 13.1275C0.0750008 12.5279 -0.0278426 11.8897 0.00644056 11.2514V4.74865C-0.0278426 4.11038 0.0750008 3.47215 0.308755 2.87255C0.542509 2.27295 0.90232 1.72442 1.36644 1.26012C2.4064 0.388169 3.76697 -0.0619198 5.15455 0.00698748H13.6309C15.0195 -0.0625956 16.381 0.389716 17.419 1.26545C17.8841 1.73574 18.2443 2.29001 18.4778 2.89507C18.7113 3.50014 18.8134 4.14356 18.778 4.78684H14.8069V4.81703C13.926 4.81418 13.0791 5.13849 12.4482 5.72025C12.1389 6.00184 11.8927 6.33961 11.7245 6.71333C11.5563 7.08705 11.4695 7.48905 11.4693 7.89525C11.4814 8.72204 11.8396 9.51054 12.4653 10.0878C13.091 10.665 13.9331 10.9838 14.8069 10.9744H18.778V11.2506C18.8123 11.8888 18.7095 12.5271 18.4757 13.1267C18.242 13.7263 17.8821 14.2748 17.418 14.7391C16.3782 15.6114 15.0176 16.0618 13.6299 15.9931ZM4.45343 3.46354C4.26722 3.46185 4.08776 3.52939 3.95365 3.65164C3.81954 3.77388 3.74151 3.94106 3.73635 4.1172C3.73931 4.29546 3.8161 4.46551 3.9502 4.59074C4.08431 4.71598 4.26501 4.78639 4.45343 4.78684H9.75171C9.93716 4.78684 10.115 4.71713 10.2461 4.59305C10.3773 4.46896 10.4509 4.30067 10.4509 4.12519C10.4509 3.94971 10.3773 3.78142 10.2461 3.65733C10.115 3.53325 9.93716 3.46354 9.75171 3.46354H4.45343ZM18.0769 9.65106H14.8538C14.4104 9.65523 13.9784 9.51775 13.6277 9.26086C13.277 9.00397 13.0281 8.64268 12.9213 8.2354C12.8688 7.97765 12.8781 7.71206 12.9484 7.45815C13.0188 7.20424 13.1484 6.96849 13.3277 6.76823C13.5098 6.56447 13.7362 6.40027 13.9915 6.28686C14.2468 6.17344 14.5249 6.11346 14.8069 6.11102H18.0769C18.2602 6.10912 18.4369 6.17597 18.5683 6.29696C18.6996 6.41795 18.7751 6.58323 18.778 6.75668V9.00451C18.7724 9.17714 18.6962 9.34097 18.5654 9.46143C18.4346 9.58189 18.2594 9.64956 18.0769 9.65017V9.65106ZM14.9392 7.14923C14.7538 7.14816 14.5753 7.21573 14.4418 7.33751C14.3755 7.39777 14.3226 7.47 14.2863 7.54994C14.2501 7.62988 14.2311 7.71589 14.2306 7.80289C14.2336 7.98131 14.3105 8.15148 14.4448 8.27674C14.5791 8.402 14.76 8.47232 14.9486 8.47253H15.2574C15.4429 8.47253 15.6207 8.40282 15.7519 8.27873C15.883 8.15465 15.9567 7.98636 15.9567 7.81088C15.9567 7.6354 15.883 7.46711 15.7519 7.34302C15.6207 7.21894 15.4429 7.14923 15.2574 7.14923H14.9392Z" fill="#FF6381"/>
</svg>
