<svg width="17" height="14" viewBox="0 0 17 14" fill="none" xmlns="http://www.w3.org/2000/svg">
<path d="M11.9262 13.994H4.51023C3.2961 14.0543 2.1056 13.6604 1.19564 12.8975C0.78953 12.4912 0.474696 12.0113 0.270161 11.4866C0.0656257 10.962 -0.0243623 10.4035 0.00563549 9.84502V4.15507C-0.0243623 3.59658 0.0656257 3.03813 0.270161 2.51348C0.474696 1.98883 0.78953 1.50887 1.19564 1.10261C2.1056 0.339647 3.2961 -0.0541799 4.51023 0.00611405H11.927C13.1421 -0.0547712 14.3334 0.341001 15.2416 1.10727C15.6486 1.51878 15.9637 2.00376 16.1681 2.53319C16.3724 3.06262 16.4618 3.62562 16.4308 4.18848H12.956V4.2149C12.1853 4.21241 11.4442 4.49618 10.8922 5.00522C10.6215 5.25161 10.4061 5.54716 10.2589 5.87417C10.1117 6.20117 10.0358 6.55292 10.0356 6.90834C10.0463 7.63179 10.3597 8.32172 10.9071 8.8268C11.4546 9.33187 12.1915 9.61086 12.956 9.60256H16.4308V9.84424C16.4608 10.4027 16.3708 10.9612 16.1662 11.4858C15.9617 12.0105 15.6469 12.4904 15.2408 12.8967C14.3309 13.6599 13.1404 14.0541 11.9262 13.994ZM3.89675 3.0306C3.73382 3.02911 3.57679 3.08821 3.45944 3.19518C3.3421 3.30215 3.27382 3.44843 3.26931 3.60255C3.27189 3.75853 3.33908 3.90732 3.45643 4.0169C3.57377 4.12648 3.73188 4.1881 3.89675 4.18848H8.53274C8.69501 4.18848 8.85064 4.12749 8.96538 4.01892C9.08012 3.91034 9.14458 3.76309 9.14458 3.60954C9.14458 3.456 9.08012 3.30874 8.96538 3.20017C8.85064 3.0916 8.69501 3.0306 8.53274 3.0306H3.89675ZM15.8173 8.44468H12.9971C12.6091 8.44832 12.2311 8.32803 11.9242 8.10326C11.6174 7.87848 11.3996 7.56235 11.3061 7.20598C11.2602 6.98045 11.2683 6.74805 11.3299 6.52588C11.3914 6.30371 11.5048 6.09743 11.6617 5.9222C11.8211 5.74391 12.0192 5.60024 12.2426 5.501C12.4659 5.40176 12.7093 5.34928 12.956 5.34714H15.8173C15.9777 5.34548 16.1323 5.40398 16.2472 5.50984C16.3622 5.6157 16.4282 5.76033 16.4308 5.9121V7.87895C16.4259 8.03 16.3592 8.17335 16.2447 8.27875C16.1303 8.38415 15.977 8.44337 15.8173 8.4439V8.44468ZM13.0718 6.25558C12.9096 6.25464 12.7534 6.31377 12.6366 6.42032C12.5785 6.47305 12.5323 6.53625 12.5005 6.6062C12.4688 6.67614 12.4522 6.75141 12.4518 6.82753C12.4544 6.98364 12.5217 7.13255 12.6392 7.24215C12.7567 7.35175 12.915 7.41328 13.08 7.41346H13.3502C13.5125 7.41346 13.6681 7.35247 13.7829 7.24389C13.8976 7.13532 13.9621 6.98806 13.9621 6.83452C13.9621 6.68097 13.8976 6.53372 13.7829 6.42515C13.6681 6.31657 13.5125 6.25558 13.3502 6.25558H13.0718Z" fill="white"/>
</svg>
