<svg width="55" height="22" viewBox="0 0 55 22" fill="none" xmlns="http://www.w3.org/2000/svg">
<g clip-path="url(#clip0_255_2642)">
<path d="M10.5029 2.83635C9.87492 3.57945 8.87016 4.16556 7.8654 4.08183C7.73981 3.07707 8.23172 2.00951 8.80736 1.35014C9.43534 0.586108 10.5343 0.0418649 11.4239 0C11.5286 1.04662 11.1204 2.07231 10.5029 2.83635ZM11.4135 4.28068C9.95865 4.19696 8.71317 5.10752 8.0224 5.10752C7.32116 5.10752 6.26407 4.32255 5.11279 4.34348C3.61612 4.36441 2.22411 5.21218 1.46008 6.56232C-0.109858 9.26261 1.05189 13.2607 2.5695 15.4586C3.3126 16.5471 4.20223 17.7402 5.37444 17.6984C6.48386 17.6565 6.92344 16.9762 8.26312 16.9762C9.61326 16.9762 10.0005 17.6984 11.1727 17.6774C12.3868 17.6565 13.1508 16.589 13.8939 15.5005C14.7417 14.2655 15.0871 13.0618 15.108 12.999C15.0871 12.9781 12.7636 12.0885 12.7427 9.40913C12.7217 7.16936 14.5743 6.10181 14.658 6.03901C13.6114 4.49001 11.9786 4.32255 11.4135 4.28068ZM19.8178 1.24548V17.5623H22.3507V11.9838H25.8568C29.0595 11.9838 31.3097 9.78592 31.3097 6.60419C31.3097 3.42245 29.1014 1.24548 25.9406 1.24548H19.8178ZM22.3507 3.38059H25.2707C27.4686 3.38059 28.7246 4.55281 28.7246 6.61465C28.7246 8.6765 27.4686 9.85918 25.2603 9.85918H22.3507V3.38059ZM35.9358 17.6879C37.5267 17.6879 39.0024 16.882 39.6723 15.6051H39.7246V17.5623H42.069V9.44053C42.069 7.08563 40.1851 5.56803 37.286 5.56803C34.5961 5.56803 32.6076 7.10656 32.5343 9.22074H34.8159C35.0043 8.21598 35.9358 7.55661 37.2127 7.55661C38.7617 7.55661 39.6304 8.27878 39.6304 9.60799V10.5081L36.4696 10.6965C33.5286 10.8744 31.9377 12.078 31.9377 14.1713C31.9377 16.2854 33.5809 17.6879 35.9358 17.6879ZM36.6161 15.7517C35.266 15.7517 34.4077 15.1028 34.4077 14.1085C34.4077 13.0828 35.2346 12.4862 36.815 12.392L39.6304 12.2141V13.1351C39.6304 14.6632 38.3326 15.7517 36.6161 15.7517ZM45.1984 22C47.6684 22 48.8302 21.058 49.8454 18.2008L54.2936 5.72502H51.7189L48.736 15.3644H48.6837L45.7008 5.72502H43.0528L47.344 17.6042L47.1137 18.3264C46.7265 19.5509 46.0985 20.0219 44.9786 20.0219C44.7798 20.0219 44.3925 20.0009 44.2355 19.98V21.9372C44.3821 21.9791 45.01 22 45.1984 22Z" fill="white"/>
</g>
<defs>
<clipPath id="clip0_255_2642">
<rect width="53.5871" height="22" fill="white" transform="translate(0.706543)"/>
</clipPath>
</defs>
</svg>
