<svg width="13" height="15" viewBox="0 0 13 15" fill="none" xmlns="http://www.w3.org/2000/svg">
<path d="M0.918587 12.3938V8.29342H5.86431V14.1378H2.72913C2.16112 14.1378 1.71736 13.9891 1.39785 13.6918C1.07834 13.3945 0.918587 12.9618 0.918587 12.3938ZM7.12238 14.1378V8.29342H12.0748V12.3938C12.0748 12.9618 11.915 13.3945 11.5955 13.6918C11.2804 13.9891 10.8389 14.1378 10.2709 14.1378H7.12238ZM0 6.40965V4.92527C0 4.51701 0.113159 4.21747 0.339478 4.02665C0.570234 3.83583 0.883086 3.74042 1.27803 3.74042H2.60266C2.40741 3.55404 2.25431 3.3366 2.14337 3.08809C2.03687 2.83959 1.98362 2.56889 1.98362 2.27601C1.98362 1.83225 2.09012 1.43952 2.30312 1.09782C2.51613 0.756125 2.80014 0.48765 3.15515 0.292394C3.51459 0.0971393 3.9162 -0.000488281 4.35996 -0.000488281C4.85253 -0.000488281 5.28964 0.13264 5.67128 0.398897C6.05735 0.665154 6.33248 1.04013 6.49667 1.52383C6.66086 1.04013 6.936 0.665154 7.32207 0.398897C7.70814 0.13264 8.14525 -0.000488281 8.63338 -0.000488281C9.07715 -0.000488281 9.47653 0.0971393 9.83154 0.292394C10.191 0.48765 10.4772 0.756125 10.6902 1.09782C10.9032 1.43952 11.0097 1.83225 11.0097 2.27601C11.0097 2.56889 10.9565 2.83959 10.85 3.08809C10.7435 3.3366 10.5926 3.55404 10.3973 3.74042H11.722C12.1302 3.74042 12.4453 3.83583 12.6672 4.02665C12.8891 4.21747 13 4.51701 13 4.92527V6.40965C13 6.78241 12.8979 7.05532 12.6938 7.22839C12.4897 7.39702 12.2034 7.48133 11.8351 7.48133H7.12238V3.74042H8.1275C8.63782 3.74042 9.03277 3.60729 9.31234 3.34104C9.59635 3.07478 9.73835 2.75971 9.73835 2.39582C9.73835 2.04082 9.62519 1.76346 9.39887 1.56377C9.17255 1.35964 8.87967 1.25758 8.52023 1.25758C8.13859 1.25758 7.81021 1.39958 7.53507 1.68359C7.25994 1.96316 7.12238 2.33814 7.12238 2.80852V3.74042H5.86431V2.80852C5.86431 2.33814 5.72896 1.96316 5.45827 1.68359C5.18757 1.39958 4.85919 1.25758 4.47312 1.25758C4.11367 1.25758 3.82079 1.35964 3.59447 1.56377C3.36815 1.76346 3.25499 2.04082 3.25499 2.39582C3.25499 2.75971 3.39478 3.07478 3.67435 3.34104C3.95835 3.60729 4.35552 3.74042 4.86585 3.74042H5.86431V7.48133H1.16487C0.796552 7.48133 0.510326 7.39702 0.306196 7.22839C0.102065 7.05532 0 6.78241 0 6.40965Z" fill="#636366"/>
</svg>
