<svg width="48" height="48" viewBox="0 0 48 48" fill="none" xmlns="http://www.w3.org/2000/svg">
<path d="M24 48C37.2548 48 48 37.2548 48 24C48 10.7452 37.2548 0 24 0C10.7452 0 0 10.7452 0 24C0 37.2548 10.7452 48 24 48Z" fill="#FF6381"/>
<path d="M20.9455 25.8545L24.1091 16.3636L27.2728 25.8545H20.9455ZM31.5273 24.7636H33.1637C33.7091 24.7636 34.2546 24.3273 34.2546 23.6727C34.2546 23.0182 33.7091 22.5818 33.1637 22.5818H30.7637L30.3273 21.4909H33.0546C33.7091 21.4909 34.1455 21.0545 34.1455 20.4C34.1455 19.7455 33.7091 19.3091 33.0546 19.3091H29.4546L27.4909 13.9636C27.1637 13.2 26.7273 12.5454 26.0728 12C25.4182 11.4545 24.6546 11.2364 23.8909 11.2364C23.1273 11.2364 22.3637 11.4545 21.7091 12C21.0546 12.5454 20.6182 13.2 20.2909 13.9636L18.3273 19.3091H14.7273C14.1818 19.3091 13.6364 19.7455 13.6364 20.4C13.6364 20.9455 14.0728 21.4909 14.7273 21.4909H17.4546L17.0182 22.5818H14.8364C14.2909 22.5818 13.7455 23.0182 13.7455 23.6727C13.7455 24.2182 14.1818 24.7636 14.8364 24.7636H16.4728L13.7455 31.7454C13.5273 32.1818 13.5273 32.6182 13.4182 33.0545C13.4182 33.7091 13.7455 34.2545 14.1818 34.6909C14.6182 35.1273 15.2728 35.3455 15.9273 35.3455C17.0182 35.4545 18 34.6909 18.3273 33.6L19.3091 30.5455H28.6909L29.6728 33.6C30 34.6909 30.9818 35.3454 32.0728 35.2364C32.5091 35.2364 32.8364 35.1273 33.2728 34.9091C33.6 34.6909 33.8182 34.3636 34.0364 34.1455C34.2546 33.8182 34.3637 33.3818 34.3637 32.9455C34.2546 32.5091 34.2546 32.0727 34.0364 31.7454L31.5273 24.7636Z" fill="#FDFDFD"/>
<path d="M24 3.70911C12.7636 3.70911 3.70911 12.7637 3.70911 24C3.70911 35.2364 12.7636 44.2909 24 44.2909C35.2364 44.2909 44.2909 35.2364 44.2909 24C44.2909 12.7637 35.1273 3.70911 24 3.70911ZM24 42.8727C13.6364 42.8727 5.12729 34.4727 5.12729 24C5.12729 13.6364 13.5273 5.12729 24 5.12729C34.4727 5.12729 42.8727 13.6364 42.8727 24C42.8727 34.3636 34.3636 42.8727 24 42.8727Z" fill="#FDFDFD"/>
</svg>
