<svg width="105" height="72" viewBox="0 0 105 72" fill="none" xmlns="http://www.w3.org/2000/svg">
<path d="M44.9813 44.1207C43.7629 44.1207 42.5694 43.6133 41.4007 42.5986L4.14007 9.93039C6.1293 8.64346 8.65313 8 11.7116 8H78.2884C81.3469 8 83.8583 8.64346 85.8226 9.93039L48.562 42.5986C47.4181 43.6133 46.2246 44.1207 44.9813 44.1207ZM0.969747 65.9861C0.671363 65.2931 0.435143 64.5012 0.261086 63.6102C0.0870286 62.7193 0 61.6798 0 60.4919V19.5081C0 18.2212 0.0870286 17.1199 0.261086 16.2042C0.460008 15.2885 0.671363 14.645 0.895151 14.2738L28.5702 38.5522L0.969747 65.9861ZM10.5926 72C9.22503 72 8.00663 71.8515 6.93742 71.5545C5.89308 71.2575 5.02279 70.8616 4.32656 70.3666L32.7103 42.116L38.1558 46.942C39.2499 47.8824 40.3688 48.6002 41.5126 49.0951C42.6564 49.5654 43.8127 49.8005 44.9813 49.8005C46.15 49.8005 47.3063 49.5654 48.4501 49.0951C49.6187 48.6002 50.7501 47.8824 51.8442 46.942L57.2897 42.116L85.6734 70.3666C84.9772 70.8616 84.0945 71.2575 83.0253 71.5545C81.9809 71.8515 80.775 72 79.4074 72H10.5926ZM89.0303 65.9861L61.4298 38.5522L89.1048 14.2738C89.3038 14.645 89.5027 15.2885 89.7016 16.2042C89.9005 17.1199 90 18.2212 90 19.5081V60.4919C90 61.6798 89.9005 62.7193 89.7016 63.6102C89.5276 64.5012 89.3038 65.2931 89.0303 65.9861Z" fill="#8E8E93"/>
<circle cx="85" cy="20" r="20" fill="#34C759"/>
<path d="M83.0391 29C82.4525 29 81.9581 28.7448 81.5559 28.2343L76.4399 21.6546C76.2807 21.4557 76.1676 21.2653 76.1006 21.0836C76.0335 20.8933 76 20.6986 76 20.4996C76 20.0584 76.1425 19.695 76.4274 19.4095C76.7123 19.1154 77.0768 18.9683 77.5209 18.9683C78.0154 18.9683 78.4302 19.1889 78.7654 19.6301L82.9888 25.2365L91.1592 11.8176C91.352 11.5234 91.5489 11.3158 91.75 11.1947C91.9511 11.0649 92.2025 11 92.5042 11C92.9399 11 93.2961 11.1428 93.5726 11.4283C93.8575 11.7051 94 12.0642 94 12.5054C94 12.6784 93.9707 12.8558 93.912 13.0375C93.8617 13.2192 93.7737 13.4095 93.648 13.6085L84.5223 28.1954C84.1704 28.7318 83.676 29 83.0391 29Z" fill="white"/>
</svg>
