<svg width="32" height="32" viewBox="0 0 32 32" fill="none" xmlns="http://www.w3.org/2000/svg">
<g clip-path="url(#clip0_1443_2065)">
<circle cx="16.0002" cy="16" r="12.8" fill="white"/>
<path d="M16 32C24.7737 32 32.0155 24.7582 32.0155 16C32.0155 7.24178 24.7582 0 15.9845 0C7.22631 0 0 7.24178 0 16C0 24.7582 7.24178 32 16 32ZM16 18.646C15.087 18.646 14.5609 18.1354 14.53 17.207L14.3133 9.48549C14.2824 8.52611 14.9632 7.86073 15.9845 7.86073C16.9749 7.86073 17.7021 8.54159 17.6712 9.50097L17.4236 17.207C17.3926 18.1509 16.882 18.646 16 18.646ZM16 24C14.9478 24 14.0812 23.2418 14.0812 22.2205C14.0812 21.1992 14.9323 20.441 16 20.441C17.0522 20.441 17.9033 21.1992 17.9033 22.2205C17.9033 23.2573 17.0367 24 16 24Z" fill="#88888C"/>
</g>
<defs>
<clipPath id="clip0_1443_2065">
<rect width="32" height="32" fill="white"/>
</clipPath>
</defs>
</svg>
